<?xml version="1.0" encoding="UTF-8"?>
<svg version="1.1" xmlns="http://www.w3.org/2000/svg" width="512" height="512">
<path d="M0 0 C14.60586534 11.03154266 18.03799183 30.45804666 20.75 47.48046875 C22.04997944 56.86944192 22.23782792 66.35423312 22.34945679 75.82086182 C22.37424343 77.81415806 22.41405841 79.80724976 22.4543457 81.80029297 C22.47623671 94.47599385 20.16316259 105.78096447 11 115 C6.41104973 119.11018184 1.7524741 121.84282221 -4 124 C-3.54421066 124.49068466 -3.08842133 124.98136932 -2.61882019 125.48692322 C-0.44434374 128.86260776 0.15936655 132.32606634 0.90112305 136.20922852 C1.06737183 137.03404724 1.23362061 137.85886597 1.40490723 138.7086792 C1.95072788 141.43016367 2.48138258 144.15436565 3.01171875 146.87890625 C3.38773428 148.77189067 3.76460274 150.66470585 4.14228821 152.55735779 C4.93110113 156.52129641 5.71303799 160.48650507 6.48950195 164.45288086 C7.48570559 169.54144261 8.49355687 174.62760268 9.50586224 179.71298313 C10.47008507 184.55917972 11.4286786 189.40648429 12.38671875 194.25390625 C12.66225869 195.64461429 12.66225869 195.64461429 12.9433651 197.06341743 C13.46103303 199.68173563 13.97471289 202.30080225 14.48706055 204.92016602 C14.64130997 205.69790878 14.79555939 206.47565155 14.95448303 207.27696228 C15.52976756 210.23642169 16 212.9769858 16 216 C17.13429443 215.47567383 18.26858887 214.95134766 19.43725586 214.41113281 C23.6806038 212.44986163 27.92435052 210.48945464 32.16821289 208.52929688 C33.99839847 207.68382632 35.82847852 206.83812729 37.65844727 205.9921875 C40.30196277 204.77021904 42.94586764 203.54909647 45.58984375 202.328125 C46.39646957 201.95504211 47.2030954 201.58195923 48.03416443 201.1975708 C49.58704724 200.48083253 51.14144616 199.76736822 52.69747925 199.05749512 C54.28579 198.32802032 55.86779044 197.58470176 57.44436646 196.8302002 C58.23302094 196.46052124 59.02167542 196.09084229 59.83422852 195.70996094 C60.53749771 195.37414001 61.24076691 195.03831909 61.96534729 194.69232178 C64.24769992 193.9157163 65.68958033 194.02592218 68.0625 194.3125 C71.96058825 194.40699235 71.96058825 194.40699235 73.99609375 192.1875 C75.34848394 190.58466718 76.68022772 188.96421602 77.9921875 187.328125 C82.57972881 182.00871913 89.26233102 178.37804829 96.30078125 177.81640625 C100.76087297 177.69547872 100.76087297 177.69547872 103 178 C106.00617269 181.00617269 105.59585316 183.82381598 106 188 C113.34468088 183.29581521 120.16169553 178.41120508 126.8203125 172.78515625 C130.21939051 170.00132354 132.60507001 169.65049027 137.03125 169.72265625 C139 170 139 170 141.375 171.625 C145.70880396 177.95902117 145.29531705 183.70431723 144 191 C140.54332529 205.39028709 132.77788145 216.95332636 120.11328125 224.78515625 C113.3354427 228.39114356 106.50684904 230.48265817 99 232 C99 233.73906135 99.07182662 235.47783279 99.15625 237.21484375 C97.32837021 243.19867997 92.81563167 244.72507974 87.5 247.5625 C86.42427734 248.16255859 85.34855469 248.76261719 84.24023438 249.38085938 C81.9719068 250.64338181 79.69764714 251.89529749 77.41796875 253.13720703 C73.12089442 255.47911254 68.85384671 257.87249623 64.58666992 260.26831055 C62.52879081 261.42282582 60.46905222 262.57403289 58.4074707 263.72192383 C49.74079068 268.55142702 41.16448066 273.5278373 32.61328125 278.55859375 C31.67226563 279.11160156 30.73125 279.66460937 29.76171875 280.234375 C28.93631592 280.72131836 28.11091309 281.20826172 27.26049805 281.70996094 C25.21300418 282.87844108 23.10856861 283.94571569 21 285 C20.67 296.22 20.34 307.44 20 319 C21.65 319.66 23.3 320.32 25 321 C26.65592339 321.86722862 28.29610252 322.76498627 29.921875 323.6875 C30.85572021 324.21593506 31.78956543 324.74437012 32.75170898 325.28881836 C33.74114502 325.8535083 34.73058105 326.41819824 35.75 327 C36.78133057 327.58595947 37.81266113 328.17191895 38.87524414 328.77563477 C46.12863459 332.90667126 53.34066721 337.10314695 60.5234375 341.35546875 C65.85557196 344.51134551 71.20937074 347.62991241 76.5625 350.75 C77.57151367 351.3385376 78.58052734 351.9270752 79.62011719 352.53344727 C84.88223702 355.60218587 90.14666857 358.66688531 95.4140625 361.7265625 C100.43550894 364.64440384 105.45039462 367.57318475 110.45947266 370.51220703 C112.01946443 371.42577515 113.58124137 372.33631327 115.14599609 373.24169922 C130.84775151 382.33133833 142.01386527 393.11961363 147 411 C149.37494024 423.01815397 148.79216017 435.22864291 142.234375 445.86328125 C135.505815 454.80378913 127.96077849 459.07762574 117 461 C110.28577444 461.55566944 103.52806599 461.41082673 96.796875 461.38818359 C94.76073425 461.39225387 92.7245957 461.3975983 90.6884613 461.40411377 C85.18696498 461.4177319 79.68563835 461.41251335 74.18413925 461.40297651 C68.42133897 461.39535963 62.65855283 461.40243038 56.89575195 461.40713501 C47.22881468 461.41258314 37.56194633 461.40542202 27.89501953 461.39111328 C16.71184482 461.37475165 5.52883389 461.38010454 -5.65433693 461.3965925 C-15.26133441 461.4101902 -24.8682825 461.41213655 -34.47528648 461.40427649 C-40.21137557 461.39959528 -45.94738752 461.39898822 -51.68347168 461.40888596 C-57.0679947 461.41752964 -62.45230535 461.41158144 -67.83680534 461.39420319 C-69.81577132 461.390226 -71.79475509 461.39139332 -73.77371407 461.39799118 C-76.46763211 461.40614727 -79.16086252 461.39595782 -81.85473633 461.38095093 C-82.64392078 461.38764309 -83.43310524 461.39433526 -84.24620438 461.40123022 C-89.50939259 461.34406248 -89.50939259 461.34406248 -91.99076843 459.60387611 C-93.89274802 456.58124016 -93.17071817 453.47126941 -93 450 C-94.12300255 450.17245995 -94.12300255 450.17245995 -95.26869202 450.34840393 C-102.3434853 451.43305022 -109.41965598 452.50797929 -116.49755192 453.57217503 C-120.13583801 454.11955473 -123.77348745 454.6706014 -127.40991211 455.23022461 C-130.92290265 455.77071088 -134.43726063 456.30130773 -137.95275688 456.82523918 C-139.9383715 457.12375196 -141.92246288 457.43234093 -143.9065094 457.74110413 C-145.12724655 457.92136642 -146.3479837 458.10162872 -147.60571289 458.28735352 C-148.67382706 458.44945816 -149.74194122 458.61156281 -150.84242249 458.77857971 C-156.09350295 459.14680369 -159.79667667 459.02020891 -163.875 455.5625 C-167.20454163 451.54746451 -167.4357126 449.22855115 -167 444 C-164.33536671 439.33530942 -160.98287063 435.84853806 -157 432.3125 C-156.42967041 431.79631104 -155.85934082 431.28012207 -155.27172852 430.74829102 C-154.09237273 429.68099113 -152.91080542 428.61612991 -151.72705078 427.55371094 C-149.11232139 425.20141551 -146.52624219 422.81830249 -143.9375 420.4375 C-142.94944833 419.53230143 -141.96116697 418.6273535 -140.97265625 417.72265625 C-138.44563795 415.40907137 -135.92201826 413.09181198 -133.39916992 410.77368164 C-131.89831952 409.39639957 -130.39472094 408.02217351 -128.890625 406.6484375 C-126.99654679 404.91305233 -125.11077391 403.16854849 -123.234375 401.4140625 C-121.94273437 400.21910156 -121.94273437 400.21910156 -120.625 399 C-119.87476563 398.29875 -119.12453125 397.5975 -118.3515625 396.875 C-111.78081707 391.63586743 -105.30581952 390.91139234 -97.1875 390.4375 C-96.49462891 390.39431641 -95.80175781 390.35113281 -95.08789062 390.30664062 C-93.39211314 390.20138547 -91.69607948 390.10027137 -90 390 C-90.74443359 389.41605469 -90.74443359 389.41605469 -91.50390625 388.8203125 C-105.23835535 377.50958971 -111.31433838 362.31795513 -113 345 C-115.93281628 310.23580025 -113.63913868 274.91424548 -112.40087891 240.12573242 C-112.16766345 233.56837122 -111.94665559 227.01066068 -111.72886848 220.45277119 C-111.55737577 215.33505121 -111.37892916 210.21759106 -111.19848251 205.10017967 C-111.11411853 202.68161941 -111.03197949 200.26298035 -110.9522438 197.84426308 C-109.84917653 164.65962919 -109.84917653 164.65962919 -105.75 153.6875 C-105.18539062 152.11548828 -105.18539062 152.11548828 -104.609375 150.51171875 C-100.76070599 142.1137735 -95.4517713 134.57713088 -90.125 127.0625 C-89.51221191 126.19367188 -88.89942383 125.32484375 -88.26806641 124.4296875 C-86.51630456 121.95007115 -84.75901852 119.47447152 -83 117 C-82.55205078 116.36690918 -82.10410156 115.73381836 -81.64257812 115.08154297 C-74.5837414 105.11629687 -74.5837414 105.11629687 -71 102 C-70.01 102 -69.02 102 -68 102 C-68.70576172 100.87464844 -68.70576172 100.87464844 -69.42578125 99.7265625 C-70.35970703 98.19128906 -70.35970703 98.19128906 -71.3125 96.625 C-71.92738281 95.62726563 -72.54226562 94.62953125 -73.17578125 93.6015625 C-78.32004115 83.98059762 -78.4721664 74.55284091 -78.39111328 63.88916016 C-78.37516534 61.40079769 -78.39095101 58.91409149 -78.41015625 56.42578125 C-78.4361415 36.94977426 -75.50057842 18.01643284 -62 3 C-44.56325922 -12.58300089 -19.01130512 -12.82089558 0 0 Z M-57 16 C-62.12462565 22.63186849 -63.02540006 26.22860051 -64 35 C-40.9 35 -17.8 35 6 35 C3.59306652 22.96533262 0.12123092 15.1265596 -10 8 C-26.53695084 -1.86203614 -44.35971693 2.11962031 -57 16 Z M-66 47 C-67.5910005 51.77300151 -67.18451406 56.62653809 -67.1875 61.625 C-67.19974609 62.68074219 -67.21199219 63.73648438 -67.22460938 64.82421875 C-67.24879927 77.83838286 -64.37667591 88.48567046 -55.375 98.3125 C-45.16133347 107.73754068 -28.87075567 113.03880047 -15.0625 113.625 C-7.22323943 113.2624342 -0.93494343 110.42864053 4.4375 104.6875 C10.77418014 97.17806114 10.44240638 88.26127765 10.33618164 79.01147461 C10.31273951 76.83474025 10.31561619 74.65924946 10.32226562 72.48242188 C10.2877601 63.676451 9.36509205 55.87309833 8 47 C-16.42 47 -40.84 47 -66 47 Z M-65.51855469 113.26757812 C-65.98165039 113.84958984 -66.44474609 114.43160156 -66.921875 115.03125 C-67.43556641 115.67320312 -67.94925781 116.31515625 -68.47851562 116.9765625 C-70.82371493 120.09546684 -73.07006237 123.26358759 -75.25 126.5 C-75.95116943 127.53495605 -75.95116943 127.53495605 -76.66650391 128.59082031 C-77.63442896 130.02104279 -78.6007361 131.45236152 -79.56542969 132.88476562 C-80.94577172 134.92004189 -82.34811104 136.93811087 -83.7578125 138.953125 C-93.28971518 152.69512671 -98.03734105 165.61670655 -98.59423828 182.40771484 C-98.65319778 183.89395355 -98.65319778 183.89395355 -98.71334839 185.41021729 C-98.84060377 188.67686976 -98.95589824 191.94381183 -99.0703125 195.2109375 C-99.15669986 197.53831575 -99.24353175 199.86567754 -99.33078003 202.19302368 C-99.5125407 207.09350997 -99.68826802 211.9941671 -99.85986328 216.89501953 C-100.03227121 221.80680787 -100.2123318 226.71819935 -100.40087891 231.62939453 C-101.40813434 257.86848616 -102.17854056 284.09150542 -102.2421875 310.3515625 C-102.24759678 311.41251507 -102.25300606 312.47346764 -102.25857925 313.56657028 C-102.30227944 324.09870081 -102.12873585 334.54315231 -101.11767578 345.03271484 C-101.04120756 345.8361413 -100.96473934 346.63956776 -100.8859539 347.46734047 C-99.42873357 360.86395562 -93.5210224 371.02710812 -83.75 380.25 C-71.38984499 390.16064821 -58.08840978 391.28565868 -42.83984375 391.37890625 C-41.39920459 391.39511328 -39.95857611 391.41229653 -38.51795959 391.43040466 C-34.75872724 391.47571547 -30.99948006 391.5107316 -27.2401123 391.54260254 C-21.19239827 391.59486238 -15.14483903 391.65950268 -9.09732246 391.73081779 C-6.98725451 391.75366361 -4.87720679 391.76991284 -2.76707458 391.78553772 C-0.86357994 391.80577248 -0.86357994 391.80577248 1.07836914 391.82641602 C2.2007045 391.83592789 3.32303986 391.84543976 4.47938538 391.85523987 C7 392 7 392 8 393 C8.125 396.5 8.125 396.5 8 400 C5.9500837 402.0499163 1.62926885 401.18550499 -1.19165039 401.20532227 C-2.05011063 401.21522186 -2.90857086 401.22512146 -3.79304504 401.23532104 C-6.64455359 401.26703309 -9.49607882 401.29173164 -12.34765625 401.31640625 C-14.31921331 401.33696741 -16.29076588 401.35796365 -18.26231384 401.37937927 C-23.46221285 401.43468653 -28.6621522 401.4840575 -33.86212158 401.53222656 C-40.09544559 401.59118964 -46.32869555 401.65746501 -52.56195831 401.72252655 C-62.04126048 401.82064488 -71.5206092 401.90942643 -81 402 C-81 417.84 -81 433.68 -81 450 C-56.17355524 450.06779192 -31.34718574 450.12302544 -6.52067184 450.15543652 C5.0074114 450.17088736 16.53543293 450.19194278 28.06347656 450.22631836 C38.1145217 450.25627531 48.16552213 450.27558796 58.21661067 450.28226548 C63.53567081 450.28616707 68.85460308 450.29529916 74.17362213 450.31719017 C79.18700562 450.33765482 84.20020938 450.34381372 89.21363068 450.33932304 C91.04691547 450.3401438 92.88020671 450.34604967 94.7134552 450.35761642 C113.17578799 450.66573275 113.17578799 450.66573275 129.37890625 442.75 C135.47275069 436.17158479 136.35724787 428.32779814 136.27734375 419.70703125 C135.49181892 409.20755152 130.26413352 399.84432643 122.6328125 392.734375 C117.13285137 388.03052696 110.88342065 384.57271157 104.625 381 C103.34035926 380.2578776 102.05618701 379.51494371 100.77246094 378.77124023 C97.49116255 376.87289945 94.2041442 374.98471803 90.91540527 373.0993042 C87.91162728 371.37535271 84.91282252 369.64281691 81.9140625 367.91015625 C77.53949299 365.38369741 73.16301311 362.86060129 68.78515625 360.33984375 C64.07293117 357.62333086 59.37301355 354.88729772 54.6875 352.125 C54.06045166 351.75584473 53.43340332 351.38668945 52.78735352 351.00634766 C49.36433637 348.9892795 45.94422102 346.96739121 42.52734375 344.93994141 C39.24780056 342.99426218 35.96515994 341.05388388 32.68106079 339.11590576 C31.36011713 338.33508802 30.04025635 337.55243519 28.7215271 336.7678833 C26.86263452 335.6622133 25.00011158 334.56290773 23.13671875 333.46484375 C22.05092529 332.821521 20.96513184 332.17819824 19.84643555 331.51538086 C16.57424008 329.67468197 16.57424008 329.67468197 13 329 C10.41723708 330.1727946 10.41723708 330.1727946 7.7890625 332 C6.79132813 332.639375 5.79359375 333.27875 4.765625 333.9375 C2.67733034 335.30891739 0.5913743 336.68390272 -1.4921875 338.0625 C-2.4925 338.701875 -3.4928125 339.34125 -4.5234375 340 C-5.43013184 340.598125 -6.33682617 341.19625 -7.27099609 341.8125 C-10.6424237 343.27954454 -12.50083199 342.96476792 -16 342 C-17 341 -17 341 -17.625 338.3125 C-17 335 -17 335 -15.58984375 333.62109375 C-11.73516395 331.01417157 -7.97743649 328.96390732 -3.6171875 327.34765625 C3.57802046 324.38798984 3.57802046 324.38798984 9 319 C11.16567226 310.23924799 10.03173586 300.87199471 9 292 C4.64709045 293.71329721 0.5518801 295.72421634 -3.59765625 297.87890625 C-10.68182053 301.18484958 -20.09129942 301.36450852 -27.4375 298.75 C-37.20021748 293.95427913 -42.66231405 287.73590789 -47.0234375 277.92578125 C-47.37095062 277.16811966 -47.71846375 276.41045807 -48.07650757 275.62983704 C-49.18827627 273.19608316 -50.28241077 270.7549169 -51.375 268.3125 C-52.1366373 266.6298613 -52.89868318 264.94740748 -53.66113281 263.26513672 C-58.75980164 251.97005468 -63.73723683 240.64116719 -68 229 C-68.24637207 228.34032227 -68.49274414 227.68064453 -68.74658203 227.00097656 C-74.35190619 211.85491572 -76.97828335 197.1416752 -76 181 C-75.67 180.34 -75.34 179.68 -75 179 C-72.36 179 -69.72 179 -67 179 C-65.71610734 181.56778533 -65.84307512 183.88388057 -65.76123047 186.71069336 C-65.34143429 200.10107937 -62.55669378 212.20079006 -57.921875 224.7421875 C-57.47039597 225.96389397 -57.47039597 225.96389397 -57.00979614 227.21028137 C-53.70819531 235.9900254 -49.93376369 244.54573987 -46.05615234 253.08374023 C-44.86010586 255.72033299 -43.67757567 258.36271277 -42.49609375 261.00585938 C-41.72474438 262.71650049 -40.95263705 264.42680008 -40.1796875 266.13671875 C-39.83372528 266.9107756 -39.48776306 267.68483246 -39.13131714 268.48234558 C-35.6967681 276.00389828 -32.13242111 283.42448457 -25 288 C-17.84605893 290.66136374 -12.88797321 289.97451296 -6 287 C-1.64084705 284.75483229 2.58531767 282.29424254 6.8125 279.8125 C8.04702023 279.09613283 9.28205741 278.38065588 10.51757812 277.66601562 C13.07834077 276.18392405 15.6368603 274.69806738 18.19384766 273.20947266 C24.10867341 269.77035818 30.05614713 266.38862234 36 263 C38.30479709 261.68248337 40.60948397 260.3647739 42.9140625 259.046875 C47.21117363 256.59041739 51.51115714 254.13907803 55.81390381 251.69250488 C58.38324021 250.23133236 60.95166366 248.76855925 63.52001953 247.30566406 C64.74091884 246.61085377 65.96226166 245.91682213 67.18408203 245.22363281 C68.88166673 244.2604575 70.57758349 243.29434428 72.2734375 242.328125 C73.23685059 241.7805957 74.20026367 241.23306641 75.19287109 240.66894531 C78.20698217 238.8769412 81.09844187 236.96797603 84 235 C82.35387841 229.8685716 79.25032057 225.87574218 76.125 221.5625 C75.06439864 220.08514166 74.00448952 218.60728609 72.9453125 217.12890625 C72.44290039 216.42910645 71.94048828 215.72930664 71.42285156 215.00830078 C69.55722993 212.37504692 67.77023793 209.69811626 66 207 C60.79541053 208.58884609 55.99064205 210.76282922 51.078125 213.0703125 C50.21926697 213.47023407 49.36040894 213.87015564 48.4755249 214.28219604 C45.73224381 215.56007095 42.99099427 216.84222822 40.25 218.125 C34.0365915 221.02810547 27.81955531 223.92304188 21.59350586 226.7989502 C19.86408058 227.5998452 18.13637165 228.40445685 16.41040039 229.21276855 C13.96077855 230.35850628 11.50482998 231.48946073 9.046875 232.6171875 C7.95756683 233.13238449 7.95756683 233.13238449 6.84625244 233.6579895 C2.72020412 235.5301202 -0.36922274 236.39208576 -5 236 C-7.19230769 231.61538462 -7.19230769 231.61538462 -6.375 229 C-4.57219336 226.3777358 -2.74716665 225.57561538 0.125 224.25 C1.03507812 223.82203125 1.94515625 223.3940625 2.8828125 222.953125 C3.58148438 222.63859375 4.28015625 222.3240625 5 222 C4.24938287 213.15694936 2.41300534 204.54005065 0.65625 195.85546875 C0.32346158 194.19645794 -0.00901203 192.53738396 -0.34118652 190.87825012 C-1.03486456 187.41746593 -1.73101208 183.95719174 -2.42919922 180.49731445 C-3.32359356 176.06506409 -4.21379266 171.63198507 -5.10240936 167.19857311 C-5.95233186 162.95893205 -6.80415638 158.71967391 -7.65625 154.48046875 C-7.8181633 153.674298 -7.9800766 152.86812725 -8.14689636 152.03752708 C-8.60535509 149.75682211 -9.06514556 147.47639 -9.52539062 145.19604492 C-9.66048538 144.52326004 -9.79558014 143.85047516 -9.93476868 143.15730286 C-10.28282457 141.43676662 -10.64087098 139.71825906 -11 138 C-11.19305725 136.84622612 -11.19305725 136.84622612 -11.39001465 135.66914368 C-11.95936259 133.56276268 -11.95936259 133.56276268 -15.234375 132.09765625 C-16.73249437 131.40375623 -18.23849685 130.72674176 -19.75 130.0625 C-20.56605713 129.69133057 -21.38211426 129.32016113 -22.22290039 128.93774414 C-24.07751664 128.0969554 -25.93525972 127.26304331 -27.79541016 126.43457031 C-30.74170502 125.11562862 -33.67700488 123.77559878 -36.60952759 122.4264679 C-39.23003869 121.22200318 -41.85404281 120.02529111 -44.47888184 118.83029175 C-45.78207512 118.23626059 -47.08440876 117.64033984 -48.38586426 117.04251099 C-50.23167357 116.1965887 -52.08255203 115.36175438 -53.93359375 114.52734375 C-55.00665771 114.03999756 -56.07972168 113.55265137 -57.18530273 113.05053711 C-60.26968515 111.89934468 -62.78134395 110.98275527 -65.51855469 113.26757812 Z M127.64428711 187.50610352 C105.54241401 205.53107506 105.54241401 205.53107506 92 205 C92 200.71 92 196.42 92 192 C86.2141641 195.24571282 82.85270362 199.6654873 79 205 C82.06021459 210.53192638 85.4447843 215.77383293 89 221 C101.596916 220.51269184 112.71756271 216.95076193 121.97265625 208.1171875 C128.69184933 200.84162811 131.48788032 193.70940002 133 184 C130.82915075 184 129.25901579 186.18474953 127.64428711 187.50610352 Z M-119.9765625 414.90234375 C-121.11009755 416.04364273 -122.23653619 417.19203737 -123.35546875 418.34765625 C-125.00841603 420.00845601 -126.72251638 421.53622391 -128.5 423.0625 C-132.65805912 426.64872388 -136.67404661 430.37888375 -140.6875 434.125 C-141.32945312 434.72320557 -141.97140625 435.32141113 -142.6328125 435.93774414 C-146.15367823 439.23123588 -149.61363116 442.56830691 -153 446 C-142.49782245 445.44144005 -132.25483573 444.11832436 -121.875 442.5 C-119.66774187 442.15753642 -117.4602631 441.81689773 -115.25198364 441.4810791 C-113.25442254 441.17713159 -111.25778838 440.86710955 -109.26123047 440.55664062 C-103.86191349 439.8513328 -98.42637997 439.45219833 -93 439 C-93 426.79 -93 414.58 -93 402 C-105.48087649 402 -111.13469966 406.39248762 -119.9765625 414.90234375 Z " fill="#000000" transform="translate(263,30)"/>
</svg>
