<?xml version="1.0" encoding="UTF-8"?>
<svg version="1.1" xmlns="http://www.w3.org/2000/svg" width="512" height="512">
<path d="M0 0 C1.01790619 0.00215515 2.03581238 0.0043103 3.08456421 0.00653076 C17.69363523 0.05620146 32.02575853 0.30709809 46.375 3.3125 C47.34985352 3.51117676 48.32470703 3.70985352 49.32910156 3.91455078 C97.7109774 14.03517194 141.69928269 35.9516877 177.375 70.3125 C178.3640332 71.26068604 178.3640332 71.26068604 179.37304688 72.22802734 C188.86130305 81.37247479 197.6012044 90.66984009 205.375 101.3125 C206.23306152 102.46355017 207.09113451 103.61459177 207.94921875 104.765625 C213.98677396 112.95525981 219.36957302 121.45788276 224.375 130.3125 C224.7771875 131.01971191 225.179375 131.72692383 225.59375 132.45556641 C238.6191741 155.59095836 247.36801461 180.76212409 252.6875 206.75 C252.83485596 207.46889404 252.98221191 208.18778809 253.1340332 208.9284668 C256.10789088 224.57475609 256.74800362 240.04818046 256.6875 255.9375 C256.68534485 256.95540619 256.6831897 257.97331238 256.68096924 259.02206421 C256.63129854 273.63113523 256.38040191 287.96325853 253.375 302.3125 C253.07698486 303.77478027 253.07698486 303.77478027 252.77294922 305.26660156 C242.65232806 353.6484774 220.7358123 397.63678269 186.375 433.3125 C185.74287598 433.97185547 185.11075195 434.63121094 184.45947266 435.31054688 C175.31502521 444.79880305 166.01765991 453.5387044 155.375 461.3125 C154.22394983 462.17056152 153.07290823 463.02863451 151.921875 463.88671875 C143.73224019 469.92427396 135.22961724 475.30707302 126.375 480.3125 C125.66778809 480.7146875 124.96057617 481.116875 124.23193359 481.53125 C101.09654164 494.5566741 75.92537591 503.30551461 49.9375 508.625 C49.21860596 508.77235596 48.49971191 508.91971191 47.7590332 509.0715332 C33.08339502 511.86090125 18.55831162 512.66142619 3.64770508 512.62817383 C0.70811513 512.6250221 -2.2304558 512.64854926 -5.16992188 512.67382812 C-18.54306192 512.71848737 -31.43916711 511.51301542 -44.625 509.3125 C-46.33055054 509.03031616 -46.33055054 509.03031616 -48.07055664 508.74243164 C-109.33381836 497.7379236 -167.76195468 461.60504511 -204.625 411.3125 C-205.26211914 410.45857666 -205.26211914 410.45857666 -205.91210938 409.58740234 C-212.42768015 400.84658179 -218.26088547 391.80163672 -223.625 382.3125 C-224.0271875 381.60528809 -224.429375 380.89807617 -224.84375 380.16943359 C-237.8691741 357.03404164 -246.61801461 331.86287591 -251.9375 305.875 C-252.08485596 305.15610596 -252.23221191 304.43721191 -252.3840332 303.6965332 C-255.35789088 288.05024391 -255.99800362 272.57681954 -255.9375 256.6875 C-255.93534485 255.66959381 -255.9331897 254.65168762 -255.93096924 253.60293579 C-255.88129854 238.99386477 -255.63040191 224.66174147 -252.625 210.3125 C-252.42632324 209.33764648 -252.22764648 208.36279297 -252.02294922 207.35839844 C-241.90232806 158.9765226 -219.9858123 114.98821731 -185.625 79.3125 C-184.99287598 78.65314453 -184.36075195 77.99378906 -183.70947266 77.31445312 C-174.56502521 67.82619695 -165.26765991 59.0862956 -154.625 51.3125 C-153.47394983 50.45443848 -152.32290823 49.59636549 -151.171875 48.73828125 C-142.98224019 42.70072604 -134.47961724 37.31792698 -125.625 32.3125 C-124.91778809 31.9103125 -124.21057617 31.508125 -123.48193359 31.09375 C-100.34654164 18.0683259 -75.17537591 9.31948539 -49.1875 4 C-48.46860596 3.85264404 -47.74971191 3.70528809 -47.0090332 3.5534668 C-31.36274391 0.57960912 -15.88931954 -0.06050362 0 0 Z " fill="#FCF5EB" transform="translate(255.625,-0.3125)"/>
<path d="M0 0 C1.01790619 0.00215515 2.03581238 0.0043103 3.08456421 0.00653076 C17.69363523 0.05620146 32.02575853 0.30709809 46.375 3.3125 C47.34985352 3.51117676 48.32470703 3.70985352 49.32910156 3.91455078 C97.7109774 14.03517194 141.69928269 35.9516877 177.375 70.3125 C178.3640332 71.26068604 178.3640332 71.26068604 179.37304688 72.22802734 C188.86130305 81.37247479 197.6012044 90.66984009 205.375 101.3125 C206.23306152 102.46355017 207.09113451 103.61459177 207.94921875 104.765625 C213.98677396 112.95525981 219.36957302 121.45788276 224.375 130.3125 C224.7771875 131.01971191 225.179375 131.72692383 225.59375 132.45556641 C238.6191741 155.59095836 247.36801461 180.76212409 252.6875 206.75 C252.83485596 207.46889404 252.98221191 208.18778809 253.1340332 208.9284668 C256.10789088 224.57475609 256.74800362 240.04818046 256.6875 255.9375 C256.68534485 256.95540619 256.6831897 257.97331238 256.68096924 259.02206421 C256.63129854 273.63113523 256.38040191 287.96325853 253.375 302.3125 C253.07698486 303.77478027 253.07698486 303.77478027 252.77294922 305.26660156 C242.65232806 353.6484774 220.7358123 397.63678269 186.375 433.3125 C185.74287598 433.97185547 185.11075195 434.63121094 184.45947266 435.31054688 C175.31502521 444.79880305 166.01765991 453.5387044 155.375 461.3125 C154.22394983 462.17056152 153.07290823 463.02863451 151.921875 463.88671875 C143.73224019 469.92427396 135.22961724 475.30707302 126.375 480.3125 C125.66778809 480.7146875 124.96057617 481.116875 124.23193359 481.53125 C101.09654164 494.5566741 75.92537591 503.30551461 49.9375 508.625 C49.21860596 508.77235596 48.49971191 508.91971191 47.7590332 509.0715332 C33.08339502 511.86090125 18.55831162 512.66142619 3.64770508 512.62817383 C0.70811513 512.6250221 -2.2304558 512.64854926 -5.16992188 512.67382812 C-18.54306192 512.71848737 -31.43916711 511.51301542 -44.625 509.3125 C-46.33055054 509.03031616 -46.33055054 509.03031616 -48.07055664 508.74243164 C-109.33381836 497.7379236 -167.76195468 461.60504511 -204.625 411.3125 C-205.26211914 410.45857666 -205.26211914 410.45857666 -205.91210938 409.58740234 C-212.42768015 400.84658179 -218.26088547 391.80163672 -223.625 382.3125 C-224.0271875 381.60528809 -224.429375 380.89807617 -224.84375 380.16943359 C-237.8691741 357.03404164 -246.61801461 331.86287591 -251.9375 305.875 C-252.08485596 305.15610596 -252.23221191 304.43721191 -252.3840332 303.6965332 C-255.35789088 288.05024391 -255.99800362 272.57681954 -255.9375 256.6875 C-255.93534485 255.66959381 -255.9331897 254.65168762 -255.93096924 253.60293579 C-255.88129854 238.99386477 -255.63040191 224.66174147 -252.625 210.3125 C-252.42632324 209.33764648 -252.22764648 208.36279297 -252.02294922 207.35839844 C-241.90232806 158.9765226 -219.9858123 114.98821731 -185.625 79.3125 C-184.99287598 78.65314453 -184.36075195 77.99378906 -183.70947266 77.31445312 C-174.56502521 67.82619695 -165.26765991 59.0862956 -154.625 51.3125 C-153.47394983 50.45443848 -152.32290823 49.59636549 -151.171875 48.73828125 C-142.98224019 42.70072604 -134.47961724 37.31792698 -125.625 32.3125 C-124.91778809 31.9103125 -124.21057617 31.508125 -123.48193359 31.09375 C-100.34654164 18.0683259 -75.17537591 9.31948539 -49.1875 4 C-48.46860596 3.85264404 -47.74971191 3.70528809 -47.0090332 3.5534668 C-31.36274391 0.57960912 -15.88931954 -0.06050362 0 0 Z M-3.8671875 30.9296875 C-5.6721582 33.37642556 -6.61811736 35.62875419 -7.75 38.4375 C-9.29720626 41.11565905 -10.43330312 42.90367908 -13.43261719 43.93261719 C-18.04237155 44.82184117 -22.71906964 45.01854004 -27.40185547 45.21337891 C-70.06822483 47.11570111 -112.53372288 70.95919409 -143.30078125 99.234375 C-144.8938195 100.65873861 -146.53583474 102.02962781 -148.21484375 103.3515625 C-150.37076933 105.1056543 -152.09069009 106.81975844 -153.875 108.9375 C-155.76140753 111.15656434 -157.65119734 113.34021164 -159.65234375 115.45703125 C-197.52450578 155.65768064 -214.23457022 211.75246673 -212.74169922 266.00830078 C-210.88499973 318.57853275 -188.13502559 368.80247441 -151.07421875 405.86328125 C-149.54148746 407.39601254 -148.02865084 408.94920361 -146.546875 410.53125 C-134.71483883 422.95914411 -120.42082174 432.74269649 -105.625 441.3125 C-104.97128418 441.6935791 -104.31756836 442.0746582 -103.64404297 442.46728516 C-54.84393028 470.54619285 3.23214988 476.26213928 57.30810547 462.14794922 C88.83831189 453.55884188 118.12223744 437.5287335 142.12109375 415.37890625 C144.1213006 413.54509442 146.16843238 411.80212633 148.25 410.0625 C162.80533987 397.29004313 174.93206925 381.14519268 184.375 364.3125 C184.82343262 363.52053223 185.27186523 362.72856445 185.73388672 361.91259766 C213.52743655 312.30940437 221.19479045 254.35875341 206.375 199.3125 C194.16333472 156.77168391 169.19787283 117.78955987 134.375 90.3125 C133.39917969 89.51972656 132.42335938 88.72695312 131.41796875 87.91015625 C106.35925553 67.95774686 76.74129731 54.3622569 45.46240234 47.75463867 C43.98050924 47.44075465 42.50190728 47.11114968 41.02587891 46.77075195 C36.66724891 45.81010751 32.55409686 45.2032728 28.0859375 45.13671875 C14.27332419 44.87096931 14.27332419 44.87096931 10.73583984 41.96679688 C8.55454074 39.18864136 7.31959942 36.46295138 5.97265625 33.18359375 C4.62886475 30.05217636 4.62886475 30.05217636 1.43359375 29.16015625 C-1.67122796 29.0368516 -1.67122796 29.0368516 -3.8671875 30.9296875 Z " fill="#918291" transform="translate(255.625,-0.3125)"/>
<path d="M0 0 C0.96975341 -0.00958323 0.96975341 -0.00958323 1.9590978 -0.01936007 C4.12378942 -0.03461195 6.28665106 -0.01415133 8.45127869 0.00622559 C10.00363776 0.00272442 11.55599325 -0.00293411 13.1083374 -0.0105896 C17.32328155 -0.02484703 21.53757409 -0.00776786 25.75245595 0.01569557 C30.16064172 0.03578665 34.56879997 0.02992599 38.97702026 0.02758789 C46.379031 0.02764148 53.78078659 0.04740763 61.182724 0.07946777 C69.74542933 0.11637483 78.30780052 0.12514164 86.87057501 0.11817026 C95.10284385 0.1118698 103.33499789 0.12261018 111.56724358 0.14213562 C115.07317679 0.15031911 118.5790514 0.15301744 122.08499336 0.15144348 C126.21123003 0.15056591 130.33714808 0.16474604 134.4633007 0.19067001 C135.97944469 0.19784487 137.49562254 0.19990911 139.01177979 0.19655228 C141.07778133 0.19284991 143.14284657 0.20753962 145.20874023 0.22705078 C146.36592591 0.2307795 147.52311159 0.23450821 148.7153635 0.23834991 C151.5408783 0.62145996 151.5408783 0.62145996 153.37413692 2.02111053 C155.82358718 5.38087509 155.67309883 7.8160918 155.68804932 11.94050598 C155.691726 12.59613893 155.69540269 13.25177188 155.6991908 13.9272725 C155.71024448 16.13434347 155.7140743 18.34136738 155.71788025 20.54846191 C155.7241436 22.12683258 155.73079029 23.70520177 155.73779297 25.28356934 C155.75521394 29.57909904 155.7657576 33.8746176 155.7739985 38.17017388 C155.77914608 40.85272621 155.78522191 43.53527506 155.79150963 46.21782494 C155.81056434 54.6075615 155.82479516 62.99728925 155.8331216 71.3870433 C155.84289759 81.07789312 155.86922531 90.76851474 155.90962249 100.45928413 C155.93976111 107.94554221 155.9545883 115.43173479 155.95790261 122.91805238 C155.96025558 127.39127002 155.96924796 131.86424395 155.99436378 136.33739662 C156.01761039 140.54567547 156.02189165 144.75354956 156.0116024 148.96187592 C156.0111061 150.50623354 156.01745428 152.05061086 156.03115845 153.59490776 C156.04882912 155.70424605 156.04179707 157.81212412 156.02862549 159.92146301 C156.03101384 161.10152577 156.03340219 162.28158854 156.03586292 163.49741077 C155.42100683 167.37801753 154.46661058 169.00627698 151.5408783 171.62145996 C148.59231567 172.25066566 148.59231567 172.25066566 145.08848572 172.25637817 C144.44268901 172.26417813 143.7968923 172.27197808 143.13152599 172.2800144 C140.969218 172.29994648 138.80866782 172.284168 136.64634705 172.26843262 C135.09560621 172.27520832 133.54487342 172.28411118 131.99415588 172.29498291 C127.78331422 172.31778899 123.57308465 172.30893482 119.36223221 172.29308748 C114.95716442 172.28043514 110.5521493 172.29216673 106.14707947 172.30001831 C98.74927859 172.30911684 91.35172723 172.29712172 83.95396423 172.27331543 C75.39911624 172.24610364 66.84486403 172.25491767 58.29003048 172.28244746 C50.94722103 172.30513182 43.60459102 172.30834194 36.26175785 172.29525411 C31.87523697 172.28745585 27.48899621 172.28642816 23.10249329 172.30293655 C18.97856613 172.31737243 14.85540761 172.3073766 10.73156357 172.27846527 C9.21744946 172.27184961 7.70327075 172.27376045 6.18918228 172.28477859 C4.12300324 172.29842897 2.05929222 172.28133165 -0.00672913 172.25637817 C-1.16299301 172.25449305 -2.3192569 172.25260792 -3.51055908 172.25066566 C-6.4591217 171.62145996 -6.4591217 171.62145996 -8.83065033 169.49926567 C-10.78877192 166.03890795 -10.96197281 163.90623158 -10.96705627 159.94165039 C-10.97329624 159.28345417 -10.9795362 158.62525794 -10.98596525 157.94711637 C-11.00187754 155.74900348 -10.98929926 153.55200229 -10.97669983 151.35388184 C-10.98212178 149.77506363 -10.98924486 148.19625048 -10.99794006 146.6174469 C-11.01616781 142.3343597 -11.00910827 138.05165812 -10.99642372 133.76856422 C-10.98629317 129.28523345 -10.99568955 124.80193559 -11.00196838 120.31860352 C-11.00924463 112.78977534 -10.9996577 105.26110414 -10.98060608 97.7322998 C-10.95883734 89.02926856 -10.96588873 80.32661215 -10.9879117 71.62358999 C-11.00606636 64.14997955 -11.00862371 56.67648191 -10.99815702 49.20285654 C-10.99192244 44.73978437 -10.99108545 40.27688835 -11.00430298 35.81382751 C-11.01586186 31.61776124 -11.00783535 27.42217799 -10.98472595 23.22616386 C-10.97943902 21.6866632 -10.98095243 20.14712186 -10.98977661 18.60763741 C-11.00071731 16.50496695 -10.9869895 14.40384166 -10.96705627 12.30126953 C-10.96554817 11.12510323 -10.96404007 9.94893692 -10.96248627 8.73712921 C-9.86012469 1.91385575 -6.60542764 -0.00406581 0 0 Z " fill="#685E68" transform="translate(183.45912170410156,191.3785400390625)"/>
<path d="M0 0 C0.96975341 -0.00958323 0.96975341 -0.00958323 1.9590978 -0.01936007 C4.12378942 -0.03461195 6.28665106 -0.01415133 8.45127869 0.00622559 C10.00363776 0.00272442 11.55599325 -0.00293411 13.1083374 -0.0105896 C17.32328155 -0.02484703 21.53757409 -0.00776786 25.75245595 0.01569557 C30.16064172 0.03578665 34.56879997 0.02992599 38.97702026 0.02758789 C46.379031 0.02764148 53.78078659 0.04740763 61.182724 0.07946777 C69.74542933 0.11637483 78.30780052 0.12514164 86.87057501 0.11817026 C95.10284385 0.1118698 103.33499789 0.12261018 111.56724358 0.14213562 C115.07317679 0.15031911 118.5790514 0.15301744 122.08499336 0.15144348 C126.21123003 0.15056591 130.33714808 0.16474604 134.4633007 0.19067001 C135.97944469 0.19784487 137.49562254 0.19990911 139.01177979 0.19655228 C141.07778133 0.19284991 143.14284657 0.20753962 145.20874023 0.22705078 C146.36592591 0.2307795 147.52311159 0.23450821 148.7153635 0.23834991 C151.5408783 0.62145996 151.5408783 0.62145996 153.37413692 2.02111053 C155.83420184 5.3954346 155.66435383 7.83192114 155.66113281 11.97415161 C155.66241445 12.96289278 155.66241445 12.96289278 155.66372198 13.97160852 C155.66537505 16.19036881 155.65985823 18.40905424 155.65440369 20.62780762 C155.65412175 22.21428933 155.65427967 23.80077117 155.65484619 25.38725281 C155.65513392 29.70312379 155.64924115 34.01896717 155.64227223 38.33483171 C155.63603462 42.8418619 155.63543457 47.34889268 155.63424683 51.85592651 C155.63113472 60.39465575 155.62292294 68.93337223 155.61289734 77.47209585 C155.60173247 87.19142352 155.59622481 96.91075179 155.5912019 106.63008428 C155.58074024 126.62721663 155.56314312 146.62433749 155.5408783 166.62145996 C155.2108783 166.62145996 154.8808783 166.62145996 154.5408783 166.62145996 C154.5408783 132.96145996 154.5408783 99.30145996 154.5408783 64.62145996 C100.4208783 64.62145996 46.3008783 64.62145996 -9.4591217 64.62145996 C-9.4591217 98.28145996 -9.4591217 131.94145996 -9.4591217 166.62145996 C-9.7891217 166.62145996 -10.1191217 166.62145996 -10.4591217 166.62145996 C-10.5525381 145.71606425 -10.62308771 124.81070292 -10.66637039 103.90514088 C-10.68700093 94.19844908 -10.71513093 84.49188692 -10.76087952 74.78527832 C-10.80073223 66.32558741 -10.82655094 57.86599039 -10.83547568 49.40620822 C-10.84069309 44.92623854 -10.85296604 40.44653746 -10.88204193 35.96665382 C-10.90918635 31.75021273 -10.91756872 27.53415094 -10.91155243 23.31763077 C-10.91265311 21.77004243 -10.92061302 20.22244145 -10.9359436 18.67492867 C-10.95585751 16.56112513 -10.9510574 14.44875206 -10.94013977 12.33491516 C-10.94382694 11.15225476 -10.94751411 9.96959436 -10.95131302 8.75109577 C-9.87616956 1.91471454 -6.60899143 -0.004068 0 0 Z " fill="#FCCD86" transform="translate(183.45912170410156,191.3785400390625)"/>
<path d="M0 0 C39.17206235 9.80984621 75.08508904 32.15081005 104 60 C104.9890332 60.94818604 104.9890332 60.94818604 105.99804688 61.91552734 C115.48630305 71.05997479 124.2262044 80.35734009 132 91 C132.85806152 92.15105017 133.71613451 93.30209177 134.57421875 94.453125 C140.61177396 102.64275981 145.99457302 111.14538276 151 120 C151.4021875 120.70721191 151.804375 121.41442383 152.21875 122.14306641 C165.2441741 145.27845836 173.99301461 170.44962409 179.3125 196.4375 C179.45985596 197.15639404 179.60721191 197.87528809 179.7590332 198.6159668 C182.73289088 214.26225609 183.37300362 229.73568046 183.3125 245.625 C183.31034485 246.64290619 183.3081897 247.66081238 183.30596924 248.70956421 C183.25629854 263.31863523 183.00540191 277.65075853 180 292 C179.70198486 293.46228027 179.70198486 293.46228027 179.39794922 294.95410156 C169.27732806 343.3359774 147.3608123 387.32428269 113 423 C112.36787598 423.65935547 111.73575195 424.31871094 111.08447266 424.99804688 C101.94002521 434.48630305 92.64265991 443.2262044 82 451 C80.84894983 451.85806152 79.69790823 452.71613451 78.546875 453.57421875 C70.35724019 459.61177396 61.85461724 464.99457302 53 470 C52.29278809 470.4021875 51.58557617 470.804375 50.85693359 471.21875 C27.72154164 484.2441741 2.55037591 492.99301461 -23.4375 498.3125 C-24.15639404 498.45985596 -24.87528809 498.60721191 -25.6159668 498.7590332 C-40.29160498 501.54840125 -54.81668838 502.34892619 -69.72729492 502.31567383 C-72.66688487 502.3125221 -75.6054558 502.33604926 -78.54492188 502.36132812 C-95.86485794 502.41944144 -112.84339039 500.50083834 -129.75 496.6875 C-130.68465088 496.48165283 -131.61930176 496.27580566 -132.58227539 496.0637207 C-141.60313274 494.00060658 -150.30947856 491.15723064 -159 488 C-155.15637002 486.71879001 -152.58207271 487.72983278 -148.8125 488.75 C-138.53128303 491.36490884 -128.10894231 492.54010534 -117.58056641 493.70141602 C-115.44035981 493.94904825 -113.30670052 494.25252474 -111.17578125 494.5703125 C-50.19494871 502.22503838 16.21143958 479.07148089 64 442 C79.81981728 429.6538463 94.61370515 415.80768399 107 400 C107.77859375 399.03835938 108.5571875 398.07671875 109.359375 397.0859375 C136.79357721 362.57475956 154.35959871 320.47924875 161 277 C161.11569336 276.2874707 161.23138672 275.57494141 161.35058594 274.84082031 C171.52250328 210.45892211 152.40160841 141.62806266 114.66894531 89.26660156 C86.40759754 50.88474774 49.63100386 22.71032054 6.00439453 3.89453125 C3.97091568 2.9870201 1.98420057 2.01017893 0 1 C0 0.67 0 0.34 0 0 Z " fill="#7A6D79" transform="translate(329,10)"/>
<path d="M0 0 C23.65339225 3.8705551 47.32376966 18.60460184 66 33 C67.0003125 33.76957031 68.000625 34.53914063 69.03125 35.33203125 C112.96320518 70.36397827 141.3010646 120.22618371 149 176 C155.03594068 232.1528005 140.94907381 289.53142553 105.4453125 334.03515625 C102.41993272 337.70330841 99.29099082 341.25232646 96.06640625 344.74609375 C94.23259442 346.7463006 92.48962633 348.79343238 90.75 350.875 C77.97754313 365.43033987 61.83269268 377.55706925 45 387 C44.20803223 387.44843262 43.41606445 387.89686523 42.60009766 388.35888672 C-8.2584676 416.85584375 -63.76587309 422.15989865 -120 409 C-119.67 408.34 -119.34 407.68 -119 407 C-117.98607178 407.10393066 -117.98607178 407.10393066 -116.95166016 407.20996094 C-106.77507865 408.1293049 -96.62185881 408.2204465 -86.40966797 408.24023438 C-83.401734 408.24991397 -80.39449266 408.28102044 -77.38671875 408.3125 C-64.97170316 408.38088105 -53.17261036 407.45995817 -41 405 C-39.93410645 404.78617676 -38.86821289 404.57235352 -37.77001953 404.35205078 C-7.77166974 397.80820264 20.60206151 384.5467876 45 366 C46.41152344 364.93652344 46.41152344 364.93652344 47.8515625 363.8515625 C54.57645556 358.62109012 60.80264395 352.83534082 67 347 C68.06541016 346.01580078 68.06541016 346.01580078 69.15234375 345.01171875 C75.49787717 338.95166945 80.70998389 331.97192887 86 325 C86.71414063 324.06929688 87.42828125 323.13859375 88.1640625 322.1796875 C121.85752198 277.21032922 134.96507867 219.43043021 127.0390625 164.13671875 C120.69435987 124.54854937 103.41668919 87.1467349 77 57 C76.43522949 56.35546875 75.87045898 55.7109375 75.28857422 55.046875 C54.4485486 31.51876253 28.77561092 13.60603389 0 1 C0 0.67 0 0.34 0 0 Z " fill="#FBE9CF" transform="translate(319,53)"/>
<path d="M0 0 C0.96847178 -0.00701996 0.96847178 -0.00701996 1.95650864 -0.01418173 C4.12388287 -0.02616516 6.29062869 -0.01666202 8.45800781 -0.00723267 C10.01021698 -0.0112969 11.56242325 -0.01663795 13.11462402 -0.02316284 C17.33359343 -0.03685994 21.55234319 -0.03152799 25.77131653 -0.02202559 C30.18218588 -0.01444135 34.59303617 -0.02147115 39.00390625 -0.02618408 C46.41181828 -0.03164525 53.81964064 -0.02444058 61.22753906 -0.01016235 C69.79759278 0.00616487 78.3674324 0.00087662 86.93748093 -0.01564157 C94.28956309 -0.02924618 101.64158073 -0.03118113 108.99367142 -0.02332556 C113.38737753 -0.01864339 117.78098294 -0.01803909 122.17468262 -0.02793503 C126.30497787 -0.03658754 130.43499653 -0.0306144 134.56526184 -0.01325226 C136.08302857 -0.0092782 137.60081849 -0.01043713 139.11857605 -0.01704025 C141.1867891 -0.02521003 143.2541098 -0.01499101 145.32226562 0 C147.05999237 0.00169662 147.05999237 0.00169662 148.83282471 0.00342751 C151.66113281 0.38095093 151.66113281 0.38095093 154.66113281 3.38095093 C154.66113281 12.62095093 154.66113281 21.86095093 154.66113281 31.38095093 C100.54113281 31.38095093 46.42113281 31.38095093 -9.33886719 31.38095093 C-9.33886719 22.14095093 -9.33886719 12.90095093 -9.33886719 3.38095093 C-5.72749392 -0.23042234 -4.92757554 0.004811 0 0 Z " fill="#675D67" transform="translate(183.3388671875,191.61904907226563)"/>
<path d="M0 0 C1.98779297 2.34716797 1.98779297 2.34716797 3.7421875 5.4921875 C4.23044258 6.34594467 4.23044258 6.34594467 4.7285614 7.21694946 C5.79624977 9.09297382 6.83502298 10.98349678 7.875 12.875 C8.61617992 14.18680837 9.3596203 15.49734192 10.10522461 16.80664062 C11.64652732 19.5161635 13.17885286 22.23047481 14.70556641 24.94824219 C17.9016738 30.61693772 21.22234503 36.21090813 24.55206299 41.80181885 C25.52769553 43.4415062 26.49903584 45.08374514 27.47021484 46.72607422 C28.07945801 47.75490723 28.68870117 48.78374023 29.31640625 49.84375 C30.20416748 51.35195312 30.20416748 51.35195312 31.10986328 52.890625 C32.45894025 55.10992805 33.83172484 57.26781666 35.27685547 59.421875 C35.65220932 59.99377563 36.02756317 60.56567627 36.41429138 61.15490723 C37.46543911 62.74982163 38.53669105 64.33143346 39.60913086 65.91210938 C41.34250629 69.76040365 41.06935116 71.96443183 40 76 C36.87359875 77.56320063 33.54222786 77.1561724 30.10961914 77.16113281 C29.29484604 77.16609772 28.48007294 77.17106262 27.64060974 77.17617798 C24.9387834 77.1908123 22.23701575 77.19760316 19.53515625 77.203125 C17.66190081 77.20887473 15.7886454 77.21463248 13.91539001 77.22039795 C9.98533859 77.23091109 6.05530765 77.23675193 2.12524414 77.24023438 C-2.91679195 77.24572446 -7.95855871 77.26976211 -13.00051022 77.29820633 C-16.87033384 77.3168049 -20.74009219 77.32203679 -24.60995674 77.32357025 C-26.46914711 77.32660283 -28.32833617 77.33465165 -30.18748283 77.34775543 C-32.78527372 77.36476053 -35.38240106 77.3629496 -37.98022461 77.35644531 C-38.75175873 77.3656601 -39.52329285 77.37487488 -40.31820679 77.3843689 C-45.48776144 77.3437063 -45.48776144 77.3437063 -48.00764465 75.65289307 C-49 74 -49 74 -48.89746094 71.19726562 C-47.90575871 67.66425898 -46.52411292 64.99229614 -44.640625 61.84375 C-44.29993484 61.26816345 -43.95924469 60.6925769 -43.60823059 60.09954834 C-42.49754043 58.22768075 -41.37390549 56.36395705 -40.25 54.5 C-39.473622 53.19682839 -38.69815867 51.89311145 -37.92358398 50.58886719 C-36.36182458 47.96198652 -34.79522306 45.33810025 -33.22412109 42.71679688 C-30.68420246 38.47711272 -28.17159704 34.22152202 -25.66235352 29.96362305 C-24.09667097 27.30795976 -22.52523707 24.65576699 -20.953125 22.00390625 C-18.96624799 18.6469718 -16.99905789 15.27956802 -15.046875 11.90234375 C-14.35259399 10.70593262 -14.35259399 10.70593262 -13.64428711 9.48535156 C-12.78130386 7.99636928 -11.92247197 6.50497008 -11.06860352 5.01074219 C-7.84698766 -0.53641094 -6.39544215 -1.86328651 0 0 Z " fill="#FDCE85" transform="translate(260,30)"/>
<path d="M0 0 C6.6 0 13.2 0 20 0 C20.06769922 13.37771383 20.1227719 26.75531443 20.15543652 40.13316059 C20.17111159 46.34461631 20.1923836 52.55594905 20.22631836 58.76733398 C20.2588459 64.75844219 20.27683913 70.74943189 20.28463173 76.74062157 C20.29018711 79.02964329 20.30103499 81.31865832 20.31719017 83.60762978 C20.3388764 86.80667916 20.34197059 90.00523499 20.34057617 93.2043457 C20.351362 94.15668594 20.36214783 95.10902618 20.3732605 96.09022522 C20.36707451 97.39639801 20.36707451 97.39639801 20.36076355 98.72895813 C20.36352893 99.48575017 20.36629431 100.24254221 20.36914349 101.02226734 C19.89682267 103.55278551 19.01234614 104.44111641 17 106 C14.73168945 106.34057617 14.73168945 106.34057617 12.11328125 106.29296875 C11.17548828 106.28330078 10.23769531 106.27363281 9.27148438 106.26367188 C8.29501953 106.23853516 7.31855469 106.21339844 6.3125 106.1875 C5.32443359 106.17396484 4.33636719 106.16042969 3.31835938 106.14648438 C0.87835769 106.11112203 -1.56054719 106.06177033 -4 106 C-3.51391769 105.37793167 -3.02783539 104.75586334 -2.52702332 104.11494446 C-0.39178604 99.75931646 -0.56020563 95.9518632 -0.56762695 91.16088867 C-0.5574353 90.17504791 -0.54724365 89.18920715 -0.53674316 88.17349243 C-0.5065983 84.9215935 -0.49734476 81.66998909 -0.48828125 78.41796875 C-0.47143571 76.16065999 -0.45328564 73.90336062 -0.43388367 71.64607239 C-0.38636422 65.70971612 -0.35656726 59.77339791 -0.33044434 53.83691406 C-0.30064878 47.77726728 -0.25411495 41.71775167 -0.20898438 35.65820312 C-0.1229289 23.7721889 -0.05714058 11.88618844 0 0 Z " fill="#554E56" transform="translate(318,257)"/>
<path d="M0 0 C0.93199219 -0.00257813 1.86398438 -0.00515625 2.82421875 -0.0078125 C3.80003906 -0.00007813 4.77585938 0.00765625 5.78125 0.015625 C6.75707031 0.00789063 7.73289063 0.00015625 8.73828125 -0.0078125 C9.67027344 -0.00523437 10.60226563 -0.00265625 11.5625 0 C12.41908203 0.00225586 13.27566406 0.00451172 14.15820312 0.00683594 C16.28125 0.265625 16.28125 0.265625 18.28125 2.265625 C18.52175903 5.27749634 18.52175903 5.27749634 18.50830078 9.19384766 C18.50859283 9.90615036 18.50888489 10.61845306 18.50918579 11.3523407 C18.50779016 13.71157934 18.49221827 16.07050389 18.4765625 18.4296875 C18.47283319 20.06350532 18.46998583 21.69732538 18.46798706 23.33114624 C18.4603441 27.63515376 18.44068999 31.93902668 18.4185791 36.24298096 C18.3981349 40.63332295 18.3889884 45.02368665 18.37890625 49.4140625 C18.35744465 58.0313187 18.32225718 66.64843961 18.28125 75.265625 C10.03125 75.265625 1.78125 75.265625 -6.71875 75.265625 C-6.76387964 65.78215235 -6.80059611 56.29875067 -6.82237434 46.81519508 C-6.83282518 42.41191249 -6.84700796 38.00870698 -6.86962891 33.60546875 C-6.89131112 29.35852676 -6.90330883 25.11165904 -6.90850449 20.86466599 C-6.91220858 19.24189458 -6.91944146 17.61912738 -6.93021011 15.99638748 C-6.9446638 13.72878383 -6.94673054 11.46148972 -6.94580078 9.19384766 C-6.950242 7.90145172 -6.95468323 6.60905579 -6.95925903 5.27749634 C-6.55892306 0.26412773 -4.50665484 0.01186854 0 0 Z " fill="#908190" transform="translate(223.71875,287.734375)"/>
<path d="M0 0 C1.98779297 2.34716797 1.98779297 2.34716797 3.7421875 5.4921875 C4.23044258 6.34594467 4.23044258 6.34594467 4.7285614 7.21694946 C5.79624977 9.09297382 6.83502298 10.98349678 7.875 12.875 C8.61617992 14.18680837 9.3596203 15.49734192 10.10522461 16.80664062 C11.64652732 19.5161635 13.17885286 22.23047481 14.70556641 24.94824219 C17.9016738 30.61693772 21.22234503 36.21090813 24.55206299 41.80181885 C25.52769553 43.4415062 26.49903584 45.08374514 27.47021484 46.72607422 C28.07945801 47.75490723 28.68870117 48.78374023 29.31640625 49.84375 C30.20416748 51.35195312 30.20416748 51.35195312 31.10986328 52.890625 C32.45894025 55.10992805 33.83172484 57.26781666 35.27685547 59.421875 C35.83988625 60.27972595 35.83988625 60.27972595 36.41429138 61.15490723 C37.46543911 62.74982163 38.53669105 64.33143346 39.60913086 65.91210938 C41.34250629 69.76040365 41.06935116 71.96443183 40 76 C36.89448838 77.55275581 33.65773027 77.47232391 30.25 77.625 C29.54617188 77.69589844 28.84234375 77.76679687 28.1171875 77.83984375 C25.80354241 77.92155241 24.17891414 77.79918269 22 77 C19.37530322 74.36286009 17.76450971 71.25300994 16 68 C14.81751566 65.98632728 13.63386121 63.97334136 12.44921875 61.9609375 C11.19261089 59.7671703 9.93879136 57.57180399 8.6875 55.375 C4.5167377 48.08948455 0.34079612 40.81083635 -4 33.625 C-4.67804688 32.49578125 -5.35609375 31.3665625 -6.0546875 30.203125 C-7.39736959 27.992283 -8.75430072 25.79736904 -10.1328125 23.609375 C-11.11894531 22.00835937 -11.11894531 22.00835937 -12.125 20.375 C-12.70507812 19.45460938 -13.28515625 18.53421875 -13.8828125 17.5859375 C-15.2423952 14.43893139 -15.11217988 13.21072743 -14 10 C-12.66015625 7.359375 -12.66015625 7.359375 -11.0625 4.75 C-10.27552734 3.44289063 -10.27552734 3.44289063 -9.47265625 2.109375 C-6.74957776 -1.79105572 -4.33043979 -1.26165632 0 0 Z " fill="#FDC166" transform="translate(260,30)"/>
<path d="M0 0 C5.64165361 -0.07410727 11.28302447 -0.12858167 16.92504883 -0.16479492 C18.84469538 -0.1798898 20.7643074 -0.20036773 22.68383789 -0.22631836 C25.44165564 -0.26267109 28.1990178 -0.27971912 30.95703125 -0.29296875 C31.81649857 -0.30845261 32.67596588 -0.32393646 33.56147766 -0.33988953 C34.36208115 -0.34011612 35.16268463 -0.34034271 35.98754883 -0.34057617 C37.04344963 -0.35056892 37.04344963 -0.35056892 38.12068176 -0.36076355 C40 0 40 0 41.72949219 1.08117676 C43.67915479 4.02571428 43.35865632 6.54022548 43.34057617 10.04174805 C43.34123329 11.11042114 43.34123329 11.11042114 43.34190369 12.20068359 C43.3398143 14.55464115 43.31647715 16.90788569 43.29296875 19.26171875 C43.2873733 20.89410513 43.28310296 22.52649655 43.28010559 24.15888977 C43.2686527 28.45474158 43.23918187 32.75028896 43.20599365 37.04602051 C43.17530224 41.42972699 43.16160225 45.81348267 43.14648438 50.19726562 C43.11431239 58.79833234 43.061541 67.39909322 43 76 C36.07 76 29.14 76 22 76 C21.97494385 73.7938501 21.9498877 71.5877002 21.92407227 69.31469727 C21.84076118 62.04232734 21.75205465 54.77003053 21.66066074 47.49775791 C21.60539168 43.086666 21.55196546 38.67556751 21.50268555 34.2644043 C21.45510055 30.01093013 21.40276014 25.75753911 21.34705925 21.50416374 C21.32660902 19.87780757 21.30790044 18.25142858 21.29092598 16.62503242 C21.26694073 14.35483637 21.23687865 12.08479887 21.20532227 9.81469727 C21.18977798 8.52008072 21.1742337 7.22546417 21.15821838 5.89161682 C21.32841258 3.10593983 21.32841258 3.10593983 20 2 C18.51361008 1.84344973 17.02050873 1.74933057 15.52734375 1.68359375 C14.17866211 1.62075195 14.17866211 1.62075195 12.80273438 1.55664062 C11.85720703 1.51732422 10.91167969 1.47800781 9.9375 1.4375 C8.98810547 1.39431641 8.03871094 1.35113281 7.06054688 1.30664062 C4.70718647 1.20020724 2.35371646 1.09818992 0 1 C0 0.67 0 0.34 0 0 Z " fill="#7A6D79" transform="translate(220,287)"/>
<path d="M0 0 C4.98669007 2.49334503 8.49675474 5.99350949 11 11 C11.76325018 17.84422703 11.19112923 22.48535628 7 28 C3.06420826 31.47814154 -0.53861457 32.80389241 -5.69140625 33.16015625 C-9.72491652 32.88033574 -12.80246376 31.43070628 -16 29 C-20.07796847 23.87639859 -21.36457381 19.69718334 -21.28125 13.28125 C-20.69180611 8.50020514 -17.85179203 5.75038822 -14.375 2.6875 C-9.71860985 -0.62098774 -5.60468123 -0.62082623 0 0 Z " fill="#FDC267" transform="translate(261,133)"/>
<path d="M0 0 C0.33 0 0.66 0 1 0 C1 53.13 1 106.26 1 161 C0.67 161 0.34 161 0 161 C0 127.34 0 93.68 0 59 C-6.6 59 -13.2 59 -20 59 C-20 48.11 -20 37.22 -20 26 C-13.4 26 -6.8 26 0 26 C0 17.42 0 8.84 0 0 Z " fill="#EFBB70" transform="translate(338,197)"/>
<path d="M0 0 C3.43734063 -0.08703823 6.87439837 -0.14040272 10.3125 -0.1875 C11.28896484 -0.21263672 12.26542969 -0.23777344 13.27148438 -0.26367188 C14.20927734 -0.27333984 15.14707031 -0.28300781 16.11328125 -0.29296875 C16.97735596 -0.3086792 17.84143066 -0.32438965 18.73168945 -0.34057617 C21 0 21 0 22.78710938 1.1171875 C24.58007312 3.90046778 24.33758043 6.13157466 24.29296875 9.41796875 C24.28330078 10.67158203 24.27363281 11.92519531 24.26367188 13.21679688 C24.23853516 14.52712891 24.21339844 15.83746094 24.1875 17.1875 C24.17244967 18.52277163 24.15876187 19.85805937 24.14648438 21.19335938 C24.11107947 24.46241252 24.05727194 27.73125683 24 31 C17.4 31 10.8 31 4 31 C3.96261719 29.09734375 3.92523438 27.1946875 3.88671875 25.234375 C3.82106581 22.7395634 3.75461825 20.24477261 3.6875 17.75 C3.66494141 16.49574219 3.64238281 15.24148437 3.61914062 13.94921875 C3.58369141 12.74394531 3.54824219 11.53867188 3.51171875 10.296875 C3.48553467 9.18666992 3.45935059 8.07646484 3.43237305 6.93261719 C2.9631283 3.7499137 2.14408706 2.34626523 0 0 Z " fill="#554E56" transform="translate(314,192)"/>
<path d="M0 0 C0.91007812 0.00902344 1.82015625 0.01804688 2.7578125 0.02734375 C3.80582031 0.04474609 3.80582031 0.04474609 4.875 0.0625 C3.885 0.5575 3.885 0.5575 2.875 1.0625 C3.205 1.7225 3.535 2.3825 3.875 3.0625 C4.6829258 9.44643832 3.84632749 14.88809389 -0.125 20.0625 C-3.48650012 23.01629342 -6.56595671 24.02700519 -11.0625 24.3125 C-12.073125 24.23 -13.08375 24.1475 -14.125 24.0625 C-16.5777925 19.72596285 -16.81425195 15.95533791 -16.125 11.0625 C-12.60405588 4.1510171 -7.77579506 -0.09968968 0 0 Z " fill="#FDCE86" transform="translate(256.125,132.9375)"/>
<path d="M0 0 C0.76763672 -0.00257813 1.53527344 -0.00515625 2.32617188 -0.0078125 C5.40202435 0.0458205 7.80444049 0.09241374 10.43359375 1.78515625 C11.86234322 4.22570496 11.90272238 6.685434 12.03125 9.46484375 C11.08359063 12.71307092 9.2600555 13.75507778 6.4375 15.5 C3.28125 16.03125 3.28125 16.03125 -0.0625 16 C-1.1659375 16.0103125 -2.269375 16.020625 -3.40625 16.03125 C-7.1991008 15.39284937 -8.85979681 14.1929285 -11.5625 11.5 C-12.625 8.5625 -12.625 8.5625 -12.5625 5.5 C-9.36524619 -0.29077087 -6.03251491 -0.22399211 0 0 Z " fill="#958694" transform="translate(434.5625,248.5)"/>
<path d="M0 0 C4.85172613 3.45028562 8.31750397 7.13864719 10.375 12.75 C10 16 10 16 8 19 C5 21 5 21 1.75 21.375 C-3.86135281 19.31750397 -7.54971438 15.85172613 -11 11 C-12.09035292 7.33817892 -11.73516969 4.47033939 -10 1 C-6.52966061 -0.73516969 -3.66182108 -1.09035292 0 0 Z " fill="#938492" transform="translate(383,372)"/>
<path d="M0 0 C3.625 0.75 3.625 0.75 5.625 1.75 C7.36016969 5.22033939 7.71535292 8.08817892 6.625 11.75 C3.17471438 16.60172613 -0.51364719 20.06750397 -6.125 22.125 C-9.375 21.75 -9.375 21.75 -12.375 19.75 C-14.375 16.75 -14.375 16.75 -14.75 13.5 C-12.4367009 7.19100245 -7.28089011 0.25665475 0 0 Z " fill="#938492" transform="translate(133.375,371.25)"/>
<path d="M0 0 C2 1.625 2 1.625 3 4 C3.3339212 8.25749526 2.72952349 10.00620227 0.19921875 13.453125 C-5.30010762 19.49383583 -5.30010762 19.49383583 -9.26953125 20.67578125 C-12.12445864 20.77641876 -14.4471747 20.27641265 -17 19 C-18.73136847 15.53726307 -19.11837429 12.65042393 -18 9 C-12.69669239 2.21645191 -8.7712516 -2.00046089 0 0 Z " fill="#938492" transform="translate(390,120)"/>
<path d="M0 0 C5.61135281 2.05749603 9.29971438 5.52327387 12.75 10.375 C13.84035292 14.03682108 13.48516969 16.90466061 11.75 20.375 C8.27966061 22.11016969 5.41182108 22.46535292 1.75 21.375 C-3.10172613 17.92471438 -6.56750397 14.23635281 -8.625 8.625 C-8.25 5.375 -8.25 5.375 -6.25 2.375 C-3.25 0.375 -3.25 0.375 0 0 Z " fill="#938492" transform="translate(127.25,118.625)"/>
<path d="M0 0 C1.0209375 -0.01160156 1.0209375 -0.01160156 2.0625 -0.0234375 C4.58755384 0.4958276 5.3821362 1.39360924 7 3.375 C7.2981028 6.29757643 7.41882117 8.95845783 7.375 11.875 C7.38660156 12.64714844 7.39820313 13.41929687 7.41015625 14.21484375 C7.38055089 19.90894098 7.38055089 19.90894098 5.59619141 22.09423828 C3.60838663 23.6892251 2.52431126 23.77868536 0 23.75 C-0.680625 23.75773437 -1.36125 23.76546875 -2.0625 23.7734375 C-4.58755384 23.2541724 -5.3821362 22.35639076 -7 20.375 C-7.2981028 17.45242357 -7.41882117 14.79154217 -7.375 11.875 C-7.38660156 11.10285156 -7.39820313 10.33070313 -7.41015625 9.53515625 C-7.38055089 3.84105902 -7.38055089 3.84105902 -5.59619141 1.65576172 C-3.60838663 0.0607749 -2.52431126 -0.02868536 0 0 Z " fill="#928391" transform="translate(256,422.625)"/>
<path d="M0 0 C1.15822266 -0.01740234 1.15822266 -0.01740234 2.33984375 -0.03515625 C8.03394098 -0.00555089 8.03394098 -0.00555089 10.21923828 1.77880859 C11.8142251 3.76661337 11.90368536 4.85068874 11.875 7.375 C11.88273437 8.055625 11.89046875 8.73625 11.8984375 9.4375 C11.3791724 11.96255384 10.48139076 12.7571362 8.5 14.375 C5.57742357 14.6731028 2.91654217 14.79382117 0 14.75 C-1.15822266 14.76740234 -1.15822266 14.76740234 -2.33984375 14.78515625 C-8.03394098 14.75555089 -8.03394098 14.75555089 -10.21923828 12.97119141 C-11.8142251 10.98338663 -11.90368536 9.89931126 -11.875 7.375 C-11.88273437 6.694375 -11.89046875 6.01375 -11.8984375 5.3125 C-10.64891698 -0.76359978 -5.0745758 -0.07624571 0 0 Z " fill="#928391" transform="translate(77.5,248.625)"/>
<path d="M0 0 C1.89600369 0.31146472 3.79179587 0.62421717 5.6875 0.9375 C6.74324219 1.11152344 7.79898438 1.28554688 8.88671875 1.46484375 C11.60249604 1.93167121 14.30124235 2.44422616 17 3 C16.34 3.66 15.68 4.32 15 5 C9.53981871 4.67238912 5.01462723 3.02344607 0 1 C0 0.67 0 0.34 0 0 Z " fill="#837682" transform="translate(170,497)"/>
<path d="M0 0 C11.52164009 3.07517084 11.52164009 3.07517084 17 5 C15.421875 6.1796875 15.421875 6.1796875 13 7 C9.765625 5.8828125 9.765625 5.8828125 6.25 4.125 C4.49429687 3.26261719 4.49429687 3.26261719 2.703125 2.3828125 C1.81109375 1.92648437 0.9190625 1.47015625 0 1 C0 0.67 0 0.34 0 0 Z " fill="#837683" transform="translate(329,10)"/>
</svg>
