<?xml version="1.0" encoding="UTF-8"?>
<svg version="1.1" xmlns="http://www.w3.org/2000/svg" width="512" height="512">
<path d="M0 0 C8.1312507 5.59278012 12.43403342 12.99124233 16 22 C16.94875 21.0925 17.8975 20.185 18.875 19.25 C26.36377325 12.94209119 33.90504813 11.28869073 43.60546875 11.625 C52.89807588 12.6515711 59.90331103 16.96535888 66 24 C70.0344827 30.32614591 72.17490594 36.28130234 72.0625 43.8125 C72.05347656 44.60269531 72.04445313 45.39289063 72.03515625 46.20703125 C72.01775391 47.09455078 72.01775391 47.09455078 72 48 C72.66515625 47.67773438 73.3303125 47.35546875 74.015625 47.0234375 C81.05319409 44.6100303 91.11496494 44.75793152 98 47.5625 C106.75565858 52.32464255 112.66361812 59.10341717 116.3125 68.3125 C118.38262371 79.41589079 116.11218085 88.07500023 111 98 C111.92619141 98.20302734 111.92619141 98.20302734 112.87109375 98.41015625 C122.01180307 100.73359378 128.37796273 104.95129301 133.4375 113 C138.23325371 121.82099851 139.38929092 130.31587437 136.9375 140.0625 C134.60285279 147.11091111 130.04677831 152.76061037 124 157 C124.58007812 157.38929688 125.16015625 157.77859375 125.7578125 158.1796875 C133.02408724 163.38358723 137.89741643 169.42782733 140.375 178.125 C142.10324241 188.84010295 140.20822856 197.96077274 133.875 206.890625 C129.27221321 212.06876014 123.45882866 215.61679584 117 218 C117.763125 218.94875 118.52625 219.8975 119.3125 220.875 C124.39947414 228.05746064 125.96038662 236.32946726 125 245 C123.52232465 253.63974147 119.55635139 260.2406076 112.7890625 265.82421875 C105.45147989 270.9955867 98.84611871 272.36106607 90 272 C90.495 273.03125 90.99 274.0625 91.5 275.125 C94.25227515 282.53902349 94.41680551 291.53139424 91.375 298.875 C90.62727777 300.27438293 89.8350346 301.65089722 89 303 C88.5875 303.69738281 88.175 304.39476562 87.75 305.11328125 C83.3512269 311.74893044 77.48080085 315.81998327 69.78125 317.84765625 C63.27241884 318.99582623 57.50557557 319.10263993 51 318 C51.04640625 318.89460938 51.0928125 319.78921875 51.140625 320.7109375 C51.44587892 330.93694396 50.2899034 338.2760512 43.75 346.3125 C36.84869841 353.6119536 29.24059141 356.97698489 19.1875 357.375 C11.21551802 357.24513062 4.58862693 354.39241796 -2 350 C-2.0825 350.99 -2.165 351.98 -2.25 353 C-3.53193377 361.49494776 -8.36966544 367.73542098 -15 373 C-23.32111621 377.81237887 -32.29255552 379.4141051 -41.7421875 377.421875 C-50.64491304 374.64765458 -58.23414383 368.97532999 -62.625 360.625 C-64 357 -64 357 -64 354 C-67.54208647 356.67350526 -70.31740975 359.39471217 -73.0625 362.875 C-76.62826674 367.3247921 -80.27260824 371.68481815 -84 376 C-88.41612035 381.12191848 -92.74938392 386.29796692 -96.9765625 391.578125 C-99 394 -99 394 -100.8984375 395.859375 C-105.86961291 400.76542584 -107.56104123 405.93307529 -109.66308594 412.43017578 C-117.44528975 435.86371066 -138.27723689 455.81347702 -158.5 469.1875 C-159.36298706 469.76794067 -159.36298706 469.76794067 -160.2434082 470.36010742 C-163.66222326 472.53507815 -165.96400619 473.58935593 -170 473 C-171.77905273 471.22875977 -171.77905273 471.22875977 -173.43359375 468.69140625 C-174.07248535 467.73202148 -174.71137695 466.77263672 -175.36962891 465.78417969 C-176.05202637 464.72102539 -176.73442383 463.65787109 -177.4375 462.5625 C-178.54245962 460.88189086 -179.64746162 459.20130902 -180.75384521 457.52163696 C-181.54686219 456.31488906 -182.33736196 455.10648382 -183.12554932 453.89657593 C-186.35963021 448.93674465 -189.69002396 444.04799796 -193.04296875 439.16796875 C-194.56926055 436.93232485 -196.0936177 434.69537828 -197.61697388 432.45773315 C-198.62102691 430.98781089 -199.62954934 429.52093142 -200.64254761 428.05715942 C-202.07027579 425.99014909 -203.47841451 423.91103106 -204.8828125 421.828125 C-205.53149544 420.90298347 -205.53149544 420.90298347 -206.19328308 419.95915222 C-208.03388589 417.19317315 -209.02071246 415.50414654 -208.88232422 412.13574219 C-208 410 -208 410 -206 409 C-203.94504032 408.68934215 -201.88937328 408.38261204 -199.83032227 408.1003418 C-177.77760205 405.03182114 -156.88925801 397.23559605 -143 379 C-140.90000456 375.55514094 -139.10008039 371.98996021 -137.3125 368.375 C-136.27671101 366.33363392 -135.23889475 364.29329541 -134.19921875 362.25390625 C-133.67376465 361.2189502 -133.14831055 360.18399414 -132.60693359 359.11767578 C-130.03743865 354.13249643 -127.3324537 349.22371483 -124.625 344.3125 C-120.58013903 336.95206201 -116.64147286 329.57043042 -113 322 C-114.918125 322.0928125 -114.918125 322.0928125 -116.875 322.1875 C-126.05649824 322.14425903 -133.24916626 319.16183482 -140 313 C-146.70636348 306.14121917 -149.38736194 299.55656623 -149.5 290 C-149.36264834 280.23902514 -146.51586424 273.91905015 -139.94921875 266.796875 C-136.93120793 264.01474078 -133.60099243 261.94547124 -130 260 C-130.58007812 259.27296875 -130.58007812 259.27296875 -131.171875 258.53125 C-139.06284349 248.37455788 -142.04066924 240.01530325 -141 227 C-139.69165953 222.17588207 -137.76527478 218.14791217 -135 214 C-135.92941406 213.5875 -136.85882813 213.175 -137.81640625 212.75 C-147.27630139 208.398346 -153.77629912 204.11229495 -158.4375 194.4375 C-161.8011208 184.98732727 -161.1330953 174.79446506 -156.97265625 165.7578125 C-156 164 -156 164 -155 163 C-155.83402344 162.731875 -156.66804688 162.46375 -157.52734375 162.1875 C-167.60954986 158.67662869 -174.93831194 154.47572266 -180 144.8125 C-184.07037559 136.06401913 -184.15198973 126.54977921 -181.10546875 117.453125 C-178.08470485 110.74980439 -172.82304498 104.05241486 -166 101 C-160.74837178 99.34447628 -155.37952612 98.1559846 -150 97 C-150.47824219 95.95585938 -150.95648438 94.91171875 -151.44921875 93.8359375 C-154.68912691 86.25009015 -154.9150705 77.72894838 -152 70 C-148.85262723 63.40455006 -145.11979254 58.07137965 -139 54 C-138.39027344 53.5875 -137.78054687 53.175 -137.15234375 52.75 C-129.78147321 48.65980594 -121.16308289 49.47362785 -113 50 C-111.515 50.495 -111.515 50.495 -110 51 C-110.04640625 50.24976563 -110.0928125 49.49953125 -110.140625 48.7265625 C-110.48929511 38.83927451 -108.67007408 31.90979735 -102.375 24.1875 C-95.8509821 17.29764932 -87.7936898 13.98675603 -78.375 13.6875 C-69.83854835 13.77668681 -62.89174407 17.20399097 -56 22 C-55.59910156 21.0821875 -55.19820312 20.164375 -54.78515625 19.21875 C-49.81657998 8.31255418 -43.58821286 0.39210637 -32 -4 C-21.50453072 -7.42091793 -9.29850506 -5.48764233 0 0 Z M8 53 C7.46632813 53.53109375 6.93265625 54.0621875 6.3828125 54.609375 C-1.51022475 62.09273904 -8.9991235 65.53309042 -19.91796875 66.09375 C-28.40191543 65.83568318 -35.27609265 63.45359013 -42.0625 58.40234375 C-43.97021555 57.0215577 -45.86960356 55.99386798 -48 55 C-48.32871094 55.78503906 -48.65742188 56.57007813 -48.99609375 57.37890625 C-53.12557175 66.49956904 -57.87879334 72.21186947 -67.3125 75.9375 C-74.73377013 78.05972286 -82.50437669 77.37697376 -90 76 C-90.03867188 77.23363281 -90.03867188 77.23363281 -90.078125 78.4921875 C-90.59927749 88.74941607 -92.31958886 97.65351978 -100 105 C-107.15942826 110.57738232 -114.06174258 112.18743114 -123 113 C-122.7834375 113.65484375 -122.566875 114.3096875 -122.34375 114.984375 C-118.7655849 126.71280506 -119.19494706 135.74961501 -124 147 C-124.33 147.99 -124.66 148.98 -125 150 C-124.05640625 150.23783203 -124.05640625 150.23783203 -123.09375 150.48046875 C-113.08319214 153.20925034 -106.50275308 157.04083014 -101 166 C-96.32819974 174.86031083 -96.25242268 183.47698331 -99 193 C-100.18081095 195.46937652 -101.54537975 197.6726076 -103 200 C-103 200.99 -103 201.98 -103 203 C-102.28714844 203.21914062 -101.57429688 203.43828125 -100.83984375 203.6640625 C-91.287391 206.82678575 -86.30771675 210.04024432 -81.625 219.0625 C-77.25888295 228.13328328 -77.00669631 236.17075858 -80.0703125 245.66796875 C-81.32986683 248.82743907 -82.99508298 251.25994674 -85 254 C-85.33 254.99 -85.66 255.98 -86 257 C-87.796875 258.0234375 -87.796875 258.0234375 -90 259 C-91.42643452 259.85898429 -92.84328886 260.73408294 -94.25 261.625 C-94.95640625 262.07101562 -95.6628125 262.51703125 -96.390625 262.9765625 C-97.18726563 263.48316406 -97.18726563 263.48316406 -98 264 C-97.61328125 264.42410156 -97.2265625 264.84820312 -96.828125 265.28515625 C-89.99542805 272.98039663 -86.54461964 279.57796062 -86 290 C-86.39395896 294.39920842 -87.09395804 298.67887679 -88 303 C-86.83984375 303.14695312 -86.83984375 303.14695312 -85.65625 303.296875 C-79.07427273 304.24181233 -73.65739122 305.46247434 -68 309 C-67.13375 309.515625 -66.2675 310.03125 -65.375 310.5625 C-61.60122172 314.43558824 -59.41042236 319.19572175 -57 324 C-56.1646875 323.40251953 -56.1646875 323.40251953 -55.3125 322.79296875 C-45.93959471 316.28576592 -38.61202214 313.70513422 -27 315 C-23.48031277 316.01584469 -20.29240698 317.41176142 -17 319 C-15.33755291 319.6771203 -13.67189239 320.3465491 -12 321 C-11.85304688 320.38253906 -11.70609375 319.76507813 -11.5546875 319.12890625 C-9.21980866 310.3127258 -5.96613329 303.52329111 1.9375 298.5625 C11.01996541 293.68337796 19.9566829 292.7339086 30 295 C29.95359375 294.20078125 29.9071875 293.4015625 29.859375 292.578125 C29.53027762 282.56416186 30.73701941 273.57309683 37.1875 265.5625 C44.99382722 257.64088947 53.14027322 256.0349953 64 255 C63.67 253.7625 63.34 252.525 63 251.25 C60.66992491 240.47762386 61.37388835 230.43833758 67.28515625 220.93359375 C72.07414311 214.75726808 78.87103361 211.76889556 86 209 C85.59007812 208.34773437 85.18015625 207.69546875 84.7578125 207.0234375 C84.21898437 206.14945313 83.68015625 205.27546875 83.125 204.375 C82.59132813 203.51648438 82.05765625 202.65796875 81.5078125 201.7734375 C77.16568712 193.78662656 76.63263392 184.97710923 78.65234375 176.1484375 C80.88336683 169.9628542 84.92509107 163.03745447 91 160 C91 159.34 91 158.68 91 158 C89.40302831 156.73210214 89.40302831 156.73210214 87.375 155.4375 C80.79109248 150.65132609 76.36992557 144.08256089 75 136 C74.06540911 125.85092707 76.39277818 117.96540461 81 109 C80.24976563 108.81566406 79.49953125 108.63132813 78.7265625 108.44140625 C69.6702862 105.8750811 62.96381149 101.7733776 57.5625 93.90625 C54.28307995 87.44386343 53.76900356 80.11328296 53 73 C52.41734375 73.15597656 51.8346875 73.31195313 51.234375 73.47265625 C41.13951042 75.86939297 32.25893185 75.46360295 23.1171875 70.30859375 C17.62987655 66.91699012 15.08507931 63.84044305 12.2109375 58.12109375 C11.01801222 56.03155043 9.77563092 54.60627884 8 53 Z " fill="#343E6C" transform="translate(290,29)"/>
<path d="M0 0 C4.8356762 2.88300357 8.14524449 6.98951321 10.9375 11.8125 C12.54893209 18.58051477 11.96148595 24.29968561 8.5625 30.4375 C6.83411192 32.82620596 4.91399563 35.00216709 2.9375 37.1875 C1.85053152 38.42096724 0.7646026 39.6553513 -0.3203125 40.890625 C-0.85301758 41.49326172 -1.38572266 42.09589844 -1.93457031 42.71679688 C-3.99533849 45.07616888 -5.96928575 47.50066331 -7.9375 49.9375 C-11.8232807 54.72107841 -15.80584093 59.41250558 -19.83569336 64.07470703 C-22.44244445 67.09348894 -25.01864551 70.13054161 -27.54296875 73.21875 C-28.28861084 74.12391357 -28.28861084 74.12391357 -29.04931641 75.04736328 C-29.99765573 76.20126656 -30.93906881 77.36090647 -31.87255859 78.52685547 C-32.99577482 79.88689696 -34.21039351 81.17040205 -35.4375 82.4375 C-38.91120796 82.4375 -40.08978536 81.67780367 -43.03515625 79.91796875 C-43.91880859 79.39009766 -44.80246094 78.86222656 -45.71289062 78.31835938 C-47.09250977 77.48014648 -47.09250977 77.48014648 -48.5 76.625 C-49.42361328 76.07779297 -50.34722656 75.53058594 -51.29882812 74.96679688 C-52.18119141 74.43505859 -53.06355469 73.90332031 -53.97265625 73.35546875 C-54.780979 72.86844482 -55.58930176 72.3814209 -56.42211914 71.87963867 C-58.4375 70.4375 -58.4375 70.4375 -60.4375 67.4375 C-53.08511546 53.21737363 -45.60136499 39.08082419 -37.87353516 25.06103516 C-36.4439906 22.44935786 -35.03793305 19.82618665 -33.63671875 17.19921875 C-32.75791086 15.57025943 -31.87900933 13.94135063 -31 12.3125 C-30.61118652 11.57217529 -30.22237305 10.83185059 -29.82177734 10.0690918 C-23.75297022 -1.08152206 -12.02214421 -5.41810368 0 0 Z " fill="#FAD262" transform="translate(215.4375,341.5625)"/>
<path d="M0 0 C6.02930823 3.13334128 11.90118774 6.46011301 17.625 10.125 C18.62789063 10.76695312 19.63078125 11.40890625 20.6640625 12.0703125 C23 14 23 14 23.9609375 15.8984375 C24.22191319 29.93892969 9.90752979 45.1404209 1 55 C0.37738281 55.70640625 -0.24523437 56.4128125 -0.88671875 57.140625 C-5.38245032 61.94954236 -10.55895699 65.9153949 -15.75 69.9375 C-16.86882568 70.80858398 -16.86882568 70.80858398 -18.01025391 71.69726562 C-19.08025635 72.5103418 -19.08025635 72.5103418 -20.171875 73.33984375 C-20.8122168 73.82831787 -21.45255859 74.31679199 -22.11230469 74.82006836 C-24.08084687 76.05053452 -25.73135746 76.56998969 -28 77 C-30.51130064 73.40358594 -33.00705451 69.79665622 -35.5 66.1875 C-36.21542969 65.16333984 -36.93085937 64.13917969 -37.66796875 63.08398438 C-38.34472656 62.10107422 -39.02148438 61.11816406 -39.71875 60.10546875 C-40.66137695 58.74651489 -40.66137695 58.74651489 -41.62304688 57.36010742 C-43 55 -43 55 -43 52 C-42.10796875 51.80664062 -41.2159375 51.61328125 -40.296875 51.4140625 C-39.12640625 51.15367187 -37.9559375 50.89328125 -36.75 50.625 C-35.58984375 50.36976563 -34.4296875 50.11453125 -33.234375 49.8515625 C-30.53947599 49.14203595 -28.40474168 48.36903611 -26 47 C-26 45.68 -26 44.36 -26 43 C-31.13973715 42.58326456 -35.36902912 43.83866421 -40.21875 45.34375 C-43.49825469 46.11756571 -45.65524111 46.62004669 -49 46 C-51.23382868 43.81564019 -52.76617435 41.28855425 -54.375 38.625 C-54.82488281 37.92632812 -55.27476563 37.22765625 -55.73828125 36.5078125 C-59 31.35251235 -59 31.35251235 -59 29 C-58.16339844 28.84144531 -57.32679687 28.68289063 -56.46484375 28.51953125 C-34.94598563 24.20622746 -15.21756185 16.48569201 0 0 Z " fill="#F9D262" transform="translate(151,416)"/>
<path d="M0 0 C6.3096828 4.99811952 10.17068643 10.8813598 11.21484375 18.9296875 C11.54799821 28.8275991 9.8780264 36.52730111 3.0859375 43.90234375 C-4.23274063 50.53615475 -10.92550212 52.27174562 -20.78125 51.984375 C-25.98648486 51.29388466 -29.87637394 49.38319273 -34.2265625 46.52734375 C-35.61875 45.66109375 -35.61875 45.66109375 -37.0390625 44.77734375 C-42.53078289 39.12871706 -45.89942183 31.51845989 -46.5390625 23.71484375 C-46.3087533 15.68472953 -43.02526281 8.46140978 -37.47265625 2.7109375 C-26.42878973 -7.6413366 -12.68731314 -8.39143342 0 0 Z " fill="#ECEDED" transform="translate(287.2265625,36.47265625)"/>
<path d="M0 0 C4.87885097 5.10061693 7.98962481 10.78971127 8.3125 17.9375 C7.87287695 25.71638563 4.34630625 32.52201141 -1.25 37.875 C-8.20075091 42.71364428 -14.87921696 44.12195803 -23.25 42.875 C-31.13627527 40.42438884 -36.09605515 34.84769313 -40.25 27.875 C-42.27026031 21.62691016 -42.45612753 13.68131035 -39.8125 7.625 C-36.32694236 1.71685619 -31.01887381 -2.93833979 -24.75 -5.625 C-14.79389615 -7.04730055 -8.4557327 -5.52874831 0 0 Z " fill="#ECEDED" transform="translate(368.25,297.125)"/>
<path d="M0 0 C5.99622241 2.95102045 10.92669513 7.64254316 13.6171875 13.80078125 C15.63121857 21.26156301 14.99850518 29.32706999 11.23828125 36.1015625 C7.66431283 41.46251513 3.40690214 45.02473455 -2.76171875 47.1015625 C-9.70510447 48.01516588 -16.86886565 48.23136921 -23.01953125 44.49609375 C-29.1270916 39.60730666 -33.80033474 33.72271592 -35.14453125 25.86328125 C-35.69546913 18.35375839 -33.0538983 12.18069027 -28.76171875 6.1015625 C-20.3462475 -1.54618155 -10.70908627 -3.95810788 0 0 Z " fill="#ECEDEC" transform="translate(190.76171875,239.8984375)"/>
<path d="M0 0 C6.47114655 3.6680251 11.38689627 8.86277821 13.6875 16 C14.80963889 24.35107574 13.57453937 31.09413328 8.6875 38 C4.21553348 43.02432343 -1.08561458 46.41383715 -7.84765625 47.3515625 C-15.79879268 47.77651775 -22.17395792 45.6757937 -28.1640625 40.35546875 C-33.46154554 34.57521016 -35.95081645 28.47298898 -35.65234375 20.6171875 C-34.62829229 12.73081422 -31.57440318 7.2750402 -25.3046875 2.40625 C-17.44404134 -3.14244141 -8.91478624 -4.02866676 0 0 Z " fill="#ECEDEC" transform="translate(172.3125,188)"/>
<path d="M0 0 C6.88720206 3.92448914 11.29898606 9.31334319 13.625 16.9375 C14.61598688 24.18026831 13.39120144 30.64994801 9.625 36.9375 C4.91493922 42.37297145 -0.66330498 46.29036905 -7.90625 47.28515625 C-15.85755129 47.72069101 -22.23730416 45.61254208 -28.2265625 40.29296875 C-34.08737731 33.89804028 -35.98935403 27.46206865 -35.7109375 18.86328125 C-34.80114872 10.93965567 -30.53702791 6.70504437 -24.69140625 1.6015625 C-17.3622926 -3.66353432 -8.07863455 -3.71543858 0 0 Z " fill="#ECEDEC" transform="translate(179.375,88.0625)"/>
<path d="M0 0 C7.09230467 3.61171145 10.89200323 8.72134955 13.32421875 16.18359375 C14.44632889 23.76515533 13.59665318 29.81215843 9.32421875 36.18359375 C8.76734375 37.07046875 8.21046875 37.95734375 7.63671875 38.87109375 C2.33369461 44.17411789 -2.68955632 46.4996921 -10.23828125 46.68359375 C-18.71579963 46.2987006 -24.31773411 44.53326295 -30.1328125 38.19921875 C-34.26017361 32.80752677 -36.35294063 27.2610879 -35.99609375 20.4453125 C-35.01430689 13.51293946 -32.80831658 8.09297537 -27.67578125 3.18359375 C-18.20344759 -2.9700878 -10.51054563 -4.65168099 0 0 Z " fill="#ECEDED" transform="translate(267.67578125,352.81640625)"/>
<path d="M0 0 C4.8134665 5.14928974 7.94244595 10.78637726 8.1875 17.9375 C7.81709149 24.30452192 6.46567585 29.76926544 2.3125 34.6875 C1.44625 35.409375 0.58 36.13125 -0.3125 36.875 C-1.158125 37.596875 -2.00375 38.31875 -2.875 39.0625 C-9.10589665 43.69573085 -14.70622146 43.44045476 -22.3125 42.875 C-28.8779138 41.69107292 -33.29844514 38.0983524 -37.3125 32.875 C-41.33434065 26.58716654 -42.47569062 20.23841207 -41.3125 12.875 C-38.9060748 4.94999393 -34.2943474 0.13616309 -27.3125 -4.125 C-17.53381623 -8.71499442 -8.59138813 -5.51145653 0 0 Z " fill="#ECEDED" transform="translate(189.3125,300.125)"/>
<path d="M0 0 C4.51754105 4.05058368 7.62299173 9.32009957 8.46875 15.33203125 C8.54934995 24.30885092 7.41936353 30.02136217 1.42578125 36.7734375 C-3.48587731 41.46756339 -8.95443329 43.80955249 -15.73828125 44.12890625 C-24.15760457 43.74462178 -29.66481974 40.77100498 -35.3125 34.625 C-39.70482686 29.05979022 -41.66459431 23.70012746 -41.40625 16.6171875 C-40.20567762 8.88273085 -36.0057534 3.10924433 -29.95703125 -1.66015625 C-20.76145033 -7.95573361 -8.75471165 -6.1315168 0 0 Z " fill="#ECEDEC" transform="translate(415,196)"/>
<path d="M0 0 C6.94734619 3.5725677 11.56178489 7.72706785 14.125 15.25 C15.38201898 23.82399512 14.97404888 31.03124427 9.90625 38.2265625 C5.48331975 43.25085608 0.02929971 46.78686928 -6.70703125 47.5859375 C-13.48565174 47.67477918 -18.20796301 47.03685182 -23.875 43.25 C-24.761875 42.71375 -25.64875 42.1775 -26.5625 41.625 C-32.01636981 36.02372831 -34.20670485 30.02666539 -34.5625 22.25 C-34.27597374 15.31304855 -32.54284114 10.42067768 -27.875 5.25 C-19.61566334 -1.61873406 -10.27537891 -4.396345 0 0 Z " fill="#ECEDEC" transform="translate(384.875,83.75)"/>
<path d="M0 0 C6.91413706 4.05219251 12.09089456 10.49687552 14.45703125 18.12109375 C15.50546472 25.04593213 13.86152452 31.06309837 10.45703125 37.12109375 C6.85735661 41.87016945 2.44434161 45.93632562 -3.54296875 47.12109375 C-11.45962857 47.8768608 -19.05728112 48.24614761 -25.54296875 43.12109375 C-31.08145568 38.11490991 -33.98625625 32.64902206 -34.89453125 25.26171875 C-35.24420714 18.01054496 -34.04289677 12.87297025 -29.54296875 7.12109375 C-21.87324124 -1.08325283 -10.67578761 -3.68978835 0 0 Z " fill="#ECEDEC" transform="translate(319.54296875,330.87890625)"/>
<path d="M0 0 C5.86950437 4.08014123 9.47220575 8.70702024 11.33203125 15.62109375 C12.38935944 23.63238813 11.73920038 29.80666879 7.11328125 36.52734375 C2.69690935 41.71851773 -2.86050591 45.15255881 -9.68359375 45.9921875 C-18.36410903 46.17041064 -24.04876473 44.90182162 -30.48046875 38.94140625 C-36.43024328 32.50535207 -37.24523282 25.74903197 -37.109375 17.171875 C-36.32533664 10.86487612 -33.49967063 6.30075794 -28.921875 1.96875 C-20.0174085 -4.87321201 -9.71875342 -5.4027086 0 0 Z " fill="#ECEDED" transform="translate(342.66796875,51.37890625)"/>
<path d="M0 0 C4.51754105 4.05058368 7.62299173 9.32009957 8.46875 15.33203125 C8.54913635 24.28506137 7.48194361 30.17409328 1.3203125 36.80859375 C-5.17694318 42.82938401 -11.93466116 43.52070571 -20.5859375 43.375 C-27.17560178 42.65119248 -30.93150395 39.3470955 -35.3125 34.625 C-39.70482686 29.05979022 -41.66459431 23.70012746 -41.40625 16.6171875 C-40.20567762 8.88273085 -36.0057534 3.10924433 -29.95703125 -1.66015625 C-20.76145033 -7.95573361 -8.75471165 -6.1315168 0 0 Z " fill="#ECEDEC" transform="translate(228,56)"/>
<path d="M0 0 C5.00579061 4.59343621 8.56654975 9.10902796 9.3359375 16.015625 C9.43583091 24.28679894 8.80671251 30.60036838 3.26953125 37 C-2.01439731 42.06244653 -7.3747765 44.72556561 -14.69921875 45.16015625 C-21.79114193 44.91287859 -26.75470069 42.75641705 -32 38 C-38.1945132 30.97085765 -39.46672012 26.13990864 -39.26953125 16.7734375 C-38.76165551 9.66317714 -36.23775103 5.92432568 -31.125 1.125 C-22.30617082 -5.96559709 -9.45331383 -6.50141698 0 0 Z " fill="#ECEDEC" transform="translate(398,249)"/>
<path d="M0 0 C5.91420138 3.54852083 12.18604884 7.92899261 14.125 14.875 C14.98537962 22.61029981 15.72816419 30.80628834 10.68359375 37.265625 C4.25952652 43.89899768 -0.5861604 47.1394731 -10.125 47.375 C-18.25904883 47.40072188 -22.7261503 44.8701886 -28.45703125 39.3515625 C-33.91841795 33.40227093 -34.33758871 26.78211454 -34.1796875 19.0625 C-33.44595733 11.3865536 -29.68423941 7.20297802 -23.97265625 2.3203125 C-17.28887507 -2.28489986 -7.58645934 -2.91389006 0 0 Z " fill="#ECEDED" transform="translate(148.875,136.125)"/>
<path d="M0 0 C5.00579061 4.59343621 8.56654975 9.10902796 9.3359375 16.015625 C9.43568733 24.27491052 8.88332369 30.77617611 3.12890625 37.03515625 C-3.86920298 43.47765 -9.89557524 44.65273299 -19.328125 44.375 C-26.91363825 43.60030928 -31.07770818 39.42556525 -35.7734375 33.74609375 C-40.26036388 27.35865397 -40.1140944 19.54915009 -39 12 C-36.50728008 5.33747286 -31.11617738 0.46665924 -25 -3 C-16.82357793 -5.75933084 -7.11475073 -4.89309485 0 0 Z " fill="#ECEDED" transform="translate(411,139)"/>
<path d="M0 0 C6.41419589 4.24237167 10.80725068 9.57294584 13 17 C14.10126457 25.48850831 13.45717734 33.53341461 9 41 C8.01 41.495 8.01 41.495 7 42 C6.91363281 41.09378906 6.82726562 40.18757813 6.73828125 39.25390625 C5.51516884 28.6498583 3.18799005 21.16449129 -5 14 C-5.763125 13.29875 -6.52625 12.5975 -7.3125 11.875 C-15.12949488 6.42128264 -22.70551961 6.32903751 -32 7 C-34.51276016 7.46739736 -36.60633937 8.08812929 -39 9 C-28.79483266 -3.88311906 -14.91794093 -8.35107324 0 0 Z " fill="#D2D3D9" transform="translate(285,35)"/>
<path d="M0 0 C5.87085877 3.26364275 10.43195006 7.58127329 12.96875 13.86328125 C14.67679617 20.21310104 15.11963001 26.83732265 12.57421875 32.99609375 C10.3081547 36.87033229 8.57843095 39.48937937 4.8125 42 C4.78671875 41.01 4.7609375 40.02 4.734375 39 C4.39106472 29.96178471 3.4909305 23.39368088 -2.4375 16.3125 C-8.91326885 10.8669671 -14.36738472 8.0271367 -22.875 7.4375 C-24.05449219 7.35371094 -25.23398437 7.26992188 -26.44921875 7.18359375 C-27.35285156 7.12300781 -28.25648438 7.06242187 -29.1875 7 C-21.54690058 -1.87295416 -10.85372642 -4.85128681 0 0 Z " fill="#D2D3D9" transform="translate(340.1875,50)"/>
<path d="M0 0 C6.88720206 3.92448914 11.29898606 9.31334319 13.625 16.9375 C14.61238003 24.15390714 13.26369246 30.60933921 9.625 36.9375 C8.635 37.5975 7.645 38.2575 6.625 38.9375 C6.59921875 38.23625 6.5734375 37.535 6.546875 36.8125 C6.15712616 30.29306493 5.13849608 25.46051363 1.625 19.9375 C1.068125 19.050625 0.51125 18.16375 -0.0625 17.25 C-6.22602234 11.08647766 -13.28733564 8.81225795 -21.8125 8.625 C-23.48119141 8.56892578 -23.48119141 8.56892578 -25.18359375 8.51171875 C-29.0026364 9.02123607 -30.61618994 10.32307626 -33.375 12.9375 C-32.0263881 8.80512236 -30.33118595 6.59018595 -27.0625 3.75 C-26.30324219 3.07582031 -25.54398438 2.40164062 -24.76171875 1.70703125 C-17.47543991 -3.69507074 -8.10563929 -3.72785831 0 0 Z " fill="#D2D3D9" transform="translate(179.375,88.0625)"/>
<path d="M0 0 C4.8134665 5.14928974 7.94244595 10.78637726 8.1875 17.9375 C7.77408589 25.22966561 6.11702064 30.87176404 0.6875 35.875 C0.67332031 35.11316406 0.65914062 34.35132813 0.64453125 33.56640625 C0.20067856 23.95759526 -2.07381486 17.64865686 -9.125 11 C-15.61082501 5.78471906 -21.46214088 4.36292564 -29.74609375 4.5703125 C-33.05855344 4.96357255 -35.52628162 6.06772321 -38.3125 7.875 C-36.36379713 1.85267889 -32.4504686 -0.7403959 -27.3125 -4.125 C-17.53381623 -8.71499442 -8.59138813 -5.51145653 0 0 Z " fill="#D1D2D8" transform="translate(189.3125,300.125)"/>
<path d="M0 0 C6.47114655 3.6680251 11.38689627 8.86277821 13.6875 16 C14.80536238 24.31924948 13.48847529 31.06040844 8.6875 38 C7.6975 38.495 7.6975 38.495 6.6875 39 C6.61273438 38.09378906 6.53796875 37.18757813 6.4609375 36.25390625 C5.45874941 26.96892832 3.86603401 20.17110589 -3.6015625 14.15625 C-8.17775874 10.99614055 -11.88076624 8.86218629 -17.54296875 8.90234375 C-18.74663086 8.90717773 -18.74663086 8.90717773 -19.97460938 8.91210938 C-20.80798828 8.92048828 -21.64136719 8.92886719 -22.5 8.9375 C-23.34498047 8.94201172 -24.18996094 8.94652344 -25.06054688 8.95117188 C-27.14456155 8.96294597 -29.22853977 8.9808811 -31.3125 9 C-23.31148453 -1.51391436 -12.79123974 -5.74340293 0 0 Z " fill="#D2D3D9" transform="translate(172.3125,188)"/>
<path d="M0 0 C5.91420138 3.54852083 12.18604884 7.92899261 14.125 14.875 C14.92202557 22.04071099 15.60842633 29.50349472 11.6875 35.875 C10.841875 36.865 9.99625 37.855 9.125 38.875 C8.795 38.875 8.465 38.875 8.125 38.875 C8.05023438 38.12476563 7.97546875 37.37453125 7.8984375 36.6015625 C6.79765347 28.03271428 4.67324747 20.79674469 -2.05859375 14.9921875 C-9.2888982 9.94438642 -16.05197021 7.87338727 -24.875 8.875 C-27.81955734 10.15395058 -27.81955734 10.15395058 -29.875 11.875 C-30.865 12.37 -30.865 12.37 -31.875 12.875 C-30.52986964 7.32633728 -26.34886216 4.07522212 -21.875 0.875 C-15.52867402 -2.31389768 -6.66007029 -2.55807245 0 0 Z " fill="#D2D3D9" transform="translate(148.875,136.125)"/>
<path d="M0 0 C5.99622241 2.95102045 10.92669513 7.64254316 13.6171875 13.80078125 C15.69985558 21.51582213 14.71397722 29.02144109 11.23828125 36.1015625 C9.6328125 37.81640625 9.6328125 37.81640625 8.23828125 39.1015625 C8.16351563 38.35132813 8.08875 37.60109375 8.01171875 36.828125 C6.90865322 28.24151688 4.7554872 21.12613416 -1.875 15.21875 C-10.16260763 9.29289584 -18.86294811 7.9752326 -28.82421875 9.6015625 C-29.46359375 9.7665625 -30.10296875 9.9315625 -30.76171875 10.1015625 C-25.14683404 -1.68969539 -11.32392397 -4.18535359 0 0 Z " fill="#D1D2D8" transform="translate(190.76171875,239.8984375)"/>
<path d="M0 0 C5.22887057 3.59610064 9.12470555 8.3357196 11.0390625 14.40234375 C11.91754554 22.28826124 11.62934313 29.71166198 7.0390625 36.40234375 C5.13704723 38.37394495 3.29403672 39.81361191 1.0390625 41.40234375 C1.08546875 40.44714844 1.131875 39.49195313 1.1796875 38.5078125 C1.46158378 28.40988501 1.01394967 19.34346964 -6.1484375 11.46484375 C-12.87975226 5.49259214 -20.14038993 3.77063384 -28.9609375 3.40234375 C-21.88679208 -4.76013173 -9.20993493 -4.70543948 0 0 Z " fill="#D3D4D9" transform="translate(395.9609375,247.59765625)"/>
<path d="M0 0 C4.95562351 3.47075838 7.72984118 7.96407095 10.125 13.48828125 C11.24118628 21.42250537 10.72655768 28.09224994 6.4140625 34.9140625 C5.125 36.48828125 5.125 36.48828125 3.125 37.48828125 C3.03863281 36.49828125 2.95226562 35.50828125 2.86328125 34.48828125 C1.87760186 24.69719933 0.1257261 18.00454339 -7.25 11.17578125 C-14.06405753 5.83227887 -19.34342462 5.15007849 -27.88671875 5.08984375 C-31.12692195 5.52187084 -32.500084 6.30405194 -34.875 8.48828125 C-32.49503849 3.09836841 -28.37605747 -0.23210795 -23.1875 -2.88671875 C-14.71748706 -4.4848344 -7.60026774 -4.32387027 0 0 Z " fill="#D2D3D9" transform="translate(412.875,194.51171875)"/>
<path d="M0 0 C5.99229922 3.48135602 9.6795322 7.51697943 11.9296875 14.12109375 C13.25296022 23.14699872 12.52292778 29.94321696 7.2421875 37.4609375 C6.8090625 38.00878906 6.3759375 38.55664062 5.9296875 39.12109375 C5.18348571 36.48945079 4.94956789 34.78975386 5.1171875 31.99609375 C4.78038425 25.03549324 1.97211287 18.02345175 -3.0703125 13.12109375 C-9.88761172 8.11783981 -15.87987636 5.83448175 -24.4453125 5.99609375 C-26.31316406 6.02316406 -26.31316406 6.02316406 -28.21875 6.05078125 C-29.15976562 6.07398437 -30.10078125 6.0971875 -31.0703125 6.12109375 C-22.57351424 -3.43780429 -11.65409161 -5.99294035 0 0 Z " fill="#D1D2D8" transform="translate(387.0703125,84.87890625)"/>
<path d="M0 0 C4.87885097 5.10061693 7.98962481 10.78971127 8.3125 17.9375 C8.0030741 23.87285142 5.98988347 29.63511653 1.75 33.875 C1.67523438 33.05257812 1.60046875 32.23015625 1.5234375 31.3828125 C0.47340861 22.4678613 -1.41490908 15.03542707 -8.43359375 8.99609375 C-15.65803453 3.94020349 -22.42903815 1.87362203 -31.25 2.875 C-34.19455734 4.15395058 -34.19455734 4.15395058 -36.25 5.875 C-37.24 6.37 -37.24 6.37 -38.25 6.875 C-35.66675726 0.92174008 -30.72103788 -3.09165689 -24.8125 -5.5625 C-14.85383927 -7.13492012 -8.45248032 -5.52662175 0 0 Z " fill="#D0D2D8" transform="translate(368.25,297.125)"/>
<path d="M0 0 C2.625 0.9375 2.625 0.9375 5 2 C4.65547701 8.34086368 2.51921905 11.77548737 -1.375 16.6875 C-1.91302246 17.38302979 -2.45104492 18.07855957 -3.00537109 18.79516602 C-22.88229259 44.16109968 -22.88229259 44.16109968 -31.6640625 46.80078125 C-34 47 -34 47 -36 46 C-36.34375 43.3359375 -36.34375 43.3359375 -36 40 C-34.19537846 37.91265442 -32.60191303 36.34807441 -30.5 34.625 C-29.38582117 33.65467552 -28.27254068 32.68331857 -27.16015625 31.7109375 C-26.61504395 31.24397461 -26.06993164 30.77701172 -25.50830078 30.29589844 C-16.62105011 22.6601706 -9.23065619 13.206704 -3.30078125 3.10546875 C-2 1 -2 1 0 0 Z " fill="#323B6A" transform="translate(187,458)"/>
<path d="M0 0 C5.22194846 3.59134003 9.13965133 8.33677128 11.0390625 14.40234375 C11.74633112 21.65873604 11.62516144 27.97724982 8.0390625 34.40234375 C7.7090625 34.40234375 7.3790625 34.40234375 7.0390625 34.40234375 C6.95269531 33.70109375 6.86632812 32.99984375 6.77734375 32.27734375 C5.39448038 22.93984427 2.34175369 16.5327279 -5.16796875 10.65625 C-12.92429521 5.23189097 -21.71340837 5.30277862 -30.890625 6.91796875 C-31.91542969 7.15773437 -31.91542969 7.15773437 -32.9609375 7.40234375 C-24.80750355 -3.08064276 -12.30757388 -6.28805138 0 0 Z " fill="#D2D3D9" transform="translate(408.9609375,137.59765625)"/>
<path d="M0 0 C0 1.98 0 3.96 0 6 C-5.03704629 7.2928917 -7.38865906 6.72817318 -11.875 4.1875 C-23.65779523 -2.03601071 -34.97691076 -1.98026164 -48.109375 -0.0234375 C-48.73328125 -0.01570312 -49.3571875 -0.00796875 -50 0 C-50.66 -0.66 -51.32 -1.32 -52 -2 C-51.9375 -4.5 -51.9375 -4.5 -51 -7 C-34.93528626 -15.92484097 -14.33612137 -8.43981339 0 0 Z " fill="#313B6A" transform="translate(303,13)"/>
<path d="M0 0 C8.25464349 2.35301856 14.51556672 5.97295739 18.875 13.5625 C21.81413547 19.94489449 22.42443183 26.62547584 20.23046875 33.36328125 C19.28260157 35.36853015 18.23916886 37.16261169 17 39 C16.38125 39.928125 15.7625 40.85625 15.125 41.8125 C12.65899048 44.35103921 10.2314516 45.60460045 7 47 C9 42 9 42 10.04296875 39.7734375 C12.5163646 32.60563729 12.14337763 23.39002976 9 16.5 C4.59851708 9.06940664 -1.04021162 4.74372409 -9.3125 2.41015625 C-9.869375 2.27480469 -10.42625 2.13945312 -11 2 C-7.22738838 -0.51507442 -4.36141125 -0.59574083 0 0 Z " fill="#D0D1D7" transform="translate(260,350)"/>
<path d="M0 0 C15.69809777 -0.91981042 15.69809777 -0.91981042 21.359375 3.44921875 C27.32272638 9.08600565 31.97084468 14.74711683 32.4375 23.3125 C32.09605972 31.66356017 28.67248636 38.05388262 22.68359375 43.72265625 C21 45 21 45 18 46 C18.28875 45.29875 18.5775 44.5975 18.875 43.875 C19.24625 42.92625 19.6175 41.9775 20 41 C20.37125 40.154375 20.7425 39.30875 21.125 38.4375 C23.43508026 29.3621847 22.35747894 21.22910657 18 13 C14.15328689 6.58881149 6.85987142 3.43414792 0 1 C0 0.67 0 0.34 0 0 Z " fill="#D1D2D8" transform="translate(302,330)"/>
<path d="M0 0 C0.33 0.33 0.66 0.66 1 1 C0.9140625 2.8125 0.9140625 2.8125 0.625 5 C0.53476563 5.721875 0.44453125 6.44375 0.3515625 7.1875 C0 9 0 9 -1 10 C-2.99958364 10.04080783 -5.00045254 10.04254356 -7 10 C-8.15081169 5.97215907 -7.96281457 3.71901707 -6 0 C-3.49749232 -1.25125384 -2.59701335 -0.83774624 0 0 Z " fill="#323B6B" transform="translate(199,442)"/>
<path d="M0 0 C1.75 0.75 1.75 0.75 2.5625 2.4375 C2.75 4.75 2.75 4.75 0.625 7.5625 C-2.25 9.75 -2.25 9.75 -5.0625 9.5625 C-5.784375 9.294375 -6.50625 9.02625 -7.25 8.75 C-6.89947365 5.59526281 -6.38480924 3.9266466 -4.4375 1.375 C-2.25 -0.25 -2.25 -0.25 0 0 Z " fill="#3E456A" transform="translate(147.25,441.25)"/>
<path d="M0 0 C1 1 1 1 1.25 3.9375 C1.1675 4.948125 1.085 5.95875 1 7 C-2 9 -2 9 -5 9 C-6.75 7.25 -6.75 7.25 -8 5 C-7.8125 2.8125 -7.8125 2.8125 -7 1 C-4.51588385 -0.24205807 -2.74800896 -0.14092354 0 0 Z " fill="#303A67" transform="translate(245,11)"/>
</svg>
